G04 #@! TF.FileFunction,Copper,L1,Top,Signal*
%FSLAX46Y46*%
G04 Gerber Fmt 4.6, Leading zero omitted, Abs format (unit mm)*
G04 Created by KiCad (PCBNEW 4.0.2-1.fc23-product) date Thu 02 Nov 2017 11:38:22 PM EDT*
%MOMM*%
G01*
G04 APERTURE LIST*
%ADD10C,0.100000*%
%ADD11C,1.699260*%
%ADD12R,1.699260X1.699260*%
%ADD13O,2.300000X1.600000*%
%ADD14R,1.727200X1.727200*%
%ADD15O,1.727200X1.727200*%
%ADD16R,5.000000X2.500000*%
%ADD17C,0.685800*%
%ADD18C,0.254000*%
G04 APERTURE END LIST*
D10*
D11*
X161038540Y-104648520D03*
D12*
X161038540Y-94488520D03*
D13*
X163068000Y-117348000D03*
X163068000Y-114808000D03*
X163068000Y-112268000D03*
X163068000Y-109728000D03*
X155448000Y-109728000D03*
X155448000Y-112268000D03*
X155448000Y-114808000D03*
X155448000Y-117348000D03*
D14*
X162306000Y-87630000D03*
D15*
X162306000Y-90170000D03*
X159766000Y-87630000D03*
X159766000Y-90170000D03*
X157226000Y-87630000D03*
X157226000Y-90170000D03*
D16*
X147066000Y-107442000D03*
X147066000Y-111252000D03*
X147066000Y-103632000D03*
X147066000Y-96012000D03*
X147066000Y-99822000D03*
X147066000Y-90678000D03*
X147066000Y-86868000D03*
D17*
X150876000Y-86868000D03*
X158242000Y-113792000D03*
X153924000Y-90170000D03*
X150876000Y-99060000D03*
X153924000Y-91694000D03*
X151384000Y-105410000D03*
D18*
X147066000Y-86868000D02*
X150876000Y-86868000D01*
X161038540Y-94488520D02*
X161038540Y-93474540D01*
X162306000Y-92207080D02*
X162306000Y-90170000D01*
X161038540Y-93474540D02*
X162306000Y-92207080D01*
X161038540Y-94488520D02*
X161035480Y-94488520D01*
X161035480Y-94488520D02*
X159512000Y-96012000D01*
X156718000Y-117348000D02*
X155448000Y-117348000D01*
X159512000Y-114554000D02*
X156718000Y-117348000D01*
X159512000Y-96012000D02*
X159512000Y-114554000D01*
X158242000Y-113792000D02*
X158242000Y-95504000D01*
X155448000Y-89408000D02*
X157226000Y-87630000D01*
X155448000Y-92710000D02*
X155448000Y-89408000D01*
X158242000Y-95504000D02*
X155448000Y-92710000D01*
X147066000Y-111252000D02*
X151384000Y-111252000D01*
X161290000Y-114808000D02*
X163068000Y-114808000D01*
X156464000Y-119634000D02*
X161290000Y-114808000D01*
X156210000Y-119634000D02*
X156464000Y-119634000D01*
X154432000Y-119634000D02*
X156210000Y-119634000D01*
X152908000Y-118110000D02*
X154432000Y-119634000D01*
X152908000Y-112776000D02*
X152908000Y-118110000D01*
X151384000Y-111252000D02*
X152908000Y-112776000D01*
X147066000Y-107442000D02*
X151384000Y-107442000D01*
X156210000Y-118872000D02*
X162814000Y-112268000D01*
X154686000Y-118872000D02*
X156210000Y-118872000D01*
X153670000Y-117856000D02*
X154686000Y-118872000D01*
X153670000Y-109728000D02*
X153670000Y-117856000D01*
X151384000Y-107442000D02*
X153670000Y-109728000D01*
X162814000Y-112268000D02*
X163068000Y-112268000D01*
X150114000Y-99822000D02*
X150876000Y-99060000D01*
X155448000Y-109728000D02*
X155448000Y-108204000D01*
X151384000Y-104140000D02*
X151384000Y-101346000D01*
X155448000Y-108204000D02*
X151384000Y-104140000D01*
X151384000Y-101346000D02*
X151384000Y-101092000D01*
X151384000Y-101092000D02*
X151384000Y-101346000D01*
X155448000Y-109728000D02*
X155194000Y-109728000D01*
X151384000Y-101346000D02*
X151384000Y-101092000D01*
X151384000Y-101092000D02*
X150114000Y-99822000D01*
X150114000Y-99822000D02*
X147066000Y-99822000D01*
X150876000Y-96012000D02*
X153924000Y-92964000D01*
X153924000Y-91694000D02*
X153924000Y-92964000D01*
X155448000Y-112268000D02*
X156210000Y-112268000D01*
X156210000Y-112268000D02*
X157226000Y-111252000D01*
X157226000Y-111252000D02*
X157226000Y-108966000D01*
X157226000Y-108966000D02*
X152146000Y-103886000D01*
X152146000Y-103886000D02*
X152146000Y-97282000D01*
X152146000Y-97282000D02*
X150876000Y-96012000D01*
X150876000Y-96012000D02*
X147066000Y-96012000D01*
X149606000Y-103632000D02*
X147066000Y-103632000D01*
X151384000Y-105410000D02*
X149606000Y-103632000D01*
G36*
X164315000Y-108636225D02*
X164084483Y-108450834D01*
X163545000Y-108293000D01*
X163195000Y-108293000D01*
X163195000Y-109601000D01*
X163215000Y-109601000D01*
X163215000Y-109855000D01*
X163195000Y-109855000D01*
X163195000Y-109875000D01*
X162941000Y-109875000D01*
X162941000Y-109855000D01*
X161448085Y-109855000D01*
X161326096Y-110077039D01*
X161343633Y-110159819D01*
X161613500Y-110652896D01*
X162046151Y-111000851D01*
X161668332Y-111253302D01*
X161357263Y-111718849D01*
X161248030Y-112268000D01*
X161329051Y-112675318D01*
X160274000Y-113730369D01*
X160274000Y-109378961D01*
X161326096Y-109378961D01*
X161448085Y-109601000D01*
X162941000Y-109601000D01*
X162941000Y-108293000D01*
X162591000Y-108293000D01*
X162051517Y-108450834D01*
X161613500Y-108803104D01*
X161343633Y-109296181D01*
X161326096Y-109378961D01*
X160274000Y-109378961D01*
X160274000Y-105938589D01*
X160741933Y-106132892D01*
X161332556Y-106133408D01*
X161878417Y-105907862D01*
X162296414Y-105490594D01*
X162522912Y-104945127D01*
X162523428Y-104354504D01*
X162297882Y-103808643D01*
X161880614Y-103390646D01*
X161335147Y-103164148D01*
X160744524Y-103163632D01*
X160274000Y-103358049D01*
X160274000Y-96327630D01*
X160616040Y-95985590D01*
X161888170Y-95985590D01*
X162123487Y-95941312D01*
X162339611Y-95802240D01*
X162484601Y-95590040D01*
X162535610Y-95338150D01*
X162535610Y-93638890D01*
X162491332Y-93403573D01*
X162372229Y-93218481D01*
X162844815Y-92745895D01*
X163009996Y-92498685D01*
X163024616Y-92425185D01*
X163068000Y-92207080D01*
X163068000Y-91457926D01*
X163365670Y-91259029D01*
X163690526Y-90772848D01*
X163804600Y-90199359D01*
X163804600Y-90140641D01*
X163690526Y-89567152D01*
X163379426Y-89101558D01*
X163404917Y-89096762D01*
X163621041Y-88957690D01*
X163766031Y-88745490D01*
X163817040Y-88493600D01*
X163817040Y-86766400D01*
X163772762Y-86531083D01*
X163633690Y-86314959D01*
X163421490Y-86169969D01*
X163169600Y-86118960D01*
X161442400Y-86118960D01*
X161207083Y-86163238D01*
X160990959Y-86302310D01*
X160845969Y-86514510D01*
X160837136Y-86558131D01*
X160825670Y-86540971D01*
X160339489Y-86216115D01*
X159766000Y-86102041D01*
X159192511Y-86216115D01*
X158706330Y-86540971D01*
X158496000Y-86855752D01*
X158285670Y-86540971D01*
X157799489Y-86216115D01*
X157226000Y-86102041D01*
X156652511Y-86216115D01*
X156166330Y-86540971D01*
X155841474Y-87027152D01*
X155727400Y-87600641D01*
X155727400Y-87659359D01*
X155792372Y-87985997D01*
X154909185Y-88869185D01*
X154744004Y-89116395D01*
X154686000Y-89408000D01*
X154686000Y-91073163D01*
X154478659Y-90865460D01*
X154119370Y-90716270D01*
X153730337Y-90715931D01*
X153370788Y-90864493D01*
X153095460Y-91139341D01*
X152946270Y-91498630D01*
X152945931Y-91887663D01*
X153094493Y-92247212D01*
X153162000Y-92314837D01*
X153162000Y-92648370D01*
X150560370Y-95250000D01*
X150213440Y-95250000D01*
X150213440Y-94762000D01*
X150169162Y-94526683D01*
X150030090Y-94310559D01*
X149817890Y-94165569D01*
X149566000Y-94114560D01*
X144685000Y-94114560D01*
X144685000Y-92563000D01*
X146780250Y-92563000D01*
X146939000Y-92404250D01*
X146939000Y-90805000D01*
X147193000Y-90805000D01*
X147193000Y-92404250D01*
X147351750Y-92563000D01*
X149692310Y-92563000D01*
X149925699Y-92466327D01*
X150104327Y-92287698D01*
X150201000Y-92054309D01*
X150201000Y-90963750D01*
X150042250Y-90805000D01*
X147193000Y-90805000D01*
X146939000Y-90805000D01*
X146919000Y-90805000D01*
X146919000Y-90551000D01*
X146939000Y-90551000D01*
X146939000Y-88951750D01*
X147193000Y-88951750D01*
X147193000Y-90551000D01*
X150042250Y-90551000D01*
X150201000Y-90392250D01*
X150201000Y-89301691D01*
X150104327Y-89068302D01*
X149925699Y-88889673D01*
X149692310Y-88793000D01*
X147351750Y-88793000D01*
X147193000Y-88951750D01*
X146939000Y-88951750D01*
X146780250Y-88793000D01*
X144685000Y-88793000D01*
X144685000Y-88765440D01*
X149566000Y-88765440D01*
X149801317Y-88721162D01*
X150017441Y-88582090D01*
X150162431Y-88369890D01*
X150213440Y-88118000D01*
X150213440Y-87630000D01*
X150254917Y-87630000D01*
X150321341Y-87696540D01*
X150680630Y-87845730D01*
X151069663Y-87846069D01*
X151429212Y-87697507D01*
X151704540Y-87422659D01*
X151853730Y-87063370D01*
X151854069Y-86674337D01*
X151705507Y-86314788D01*
X151430659Y-86039460D01*
X151071370Y-85890270D01*
X150682337Y-85889931D01*
X150322788Y-86038493D01*
X150255163Y-86106000D01*
X150213440Y-86106000D01*
X150213440Y-85685000D01*
X164315000Y-85685000D01*
X164315000Y-108636225D01*
X164315000Y-108636225D01*
G37*
X164315000Y-108636225D02*
X164084483Y-108450834D01*
X163545000Y-108293000D01*
X163195000Y-108293000D01*
X163195000Y-109601000D01*
X163215000Y-109601000D01*
X163215000Y-109855000D01*
X163195000Y-109855000D01*
X163195000Y-109875000D01*
X162941000Y-109875000D01*
X162941000Y-109855000D01*
X161448085Y-109855000D01*
X161326096Y-110077039D01*
X161343633Y-110159819D01*
X161613500Y-110652896D01*
X162046151Y-111000851D01*
X161668332Y-111253302D01*
X161357263Y-111718849D01*
X161248030Y-112268000D01*
X161329051Y-112675318D01*
X160274000Y-113730369D01*
X160274000Y-109378961D01*
X161326096Y-109378961D01*
X161448085Y-109601000D01*
X162941000Y-109601000D01*
X162941000Y-108293000D01*
X162591000Y-108293000D01*
X162051517Y-108450834D01*
X161613500Y-108803104D01*
X161343633Y-109296181D01*
X161326096Y-109378961D01*
X160274000Y-109378961D01*
X160274000Y-105938589D01*
X160741933Y-106132892D01*
X161332556Y-106133408D01*
X161878417Y-105907862D01*
X162296414Y-105490594D01*
X162522912Y-104945127D01*
X162523428Y-104354504D01*
X162297882Y-103808643D01*
X161880614Y-103390646D01*
X161335147Y-103164148D01*
X160744524Y-103163632D01*
X160274000Y-103358049D01*
X160274000Y-96327630D01*
X160616040Y-95985590D01*
X161888170Y-95985590D01*
X162123487Y-95941312D01*
X162339611Y-95802240D01*
X162484601Y-95590040D01*
X162535610Y-95338150D01*
X162535610Y-93638890D01*
X162491332Y-93403573D01*
X162372229Y-93218481D01*
X162844815Y-92745895D01*
X163009996Y-92498685D01*
X163024616Y-92425185D01*
X163068000Y-92207080D01*
X163068000Y-91457926D01*
X163365670Y-91259029D01*
X163690526Y-90772848D01*
X163804600Y-90199359D01*
X163804600Y-90140641D01*
X163690526Y-89567152D01*
X163379426Y-89101558D01*
X163404917Y-89096762D01*
X163621041Y-88957690D01*
X163766031Y-88745490D01*
X163817040Y-88493600D01*
X163817040Y-86766400D01*
X163772762Y-86531083D01*
X163633690Y-86314959D01*
X163421490Y-86169969D01*
X163169600Y-86118960D01*
X161442400Y-86118960D01*
X161207083Y-86163238D01*
X160990959Y-86302310D01*
X160845969Y-86514510D01*
X160837136Y-86558131D01*
X160825670Y-86540971D01*
X160339489Y-86216115D01*
X159766000Y-86102041D01*
X159192511Y-86216115D01*
X158706330Y-86540971D01*
X158496000Y-86855752D01*
X158285670Y-86540971D01*
X157799489Y-86216115D01*
X157226000Y-86102041D01*
X156652511Y-86216115D01*
X156166330Y-86540971D01*
X155841474Y-87027152D01*
X155727400Y-87600641D01*
X155727400Y-87659359D01*
X155792372Y-87985997D01*
X154909185Y-88869185D01*
X154744004Y-89116395D01*
X154686000Y-89408000D01*
X154686000Y-91073163D01*
X154478659Y-90865460D01*
X154119370Y-90716270D01*
X153730337Y-90715931D01*
X153370788Y-90864493D01*
X153095460Y-91139341D01*
X152946270Y-91498630D01*
X152945931Y-91887663D01*
X153094493Y-92247212D01*
X153162000Y-92314837D01*
X153162000Y-92648370D01*
X150560370Y-95250000D01*
X150213440Y-95250000D01*
X150213440Y-94762000D01*
X150169162Y-94526683D01*
X150030090Y-94310559D01*
X149817890Y-94165569D01*
X149566000Y-94114560D01*
X144685000Y-94114560D01*
X144685000Y-92563000D01*
X146780250Y-92563000D01*
X146939000Y-92404250D01*
X146939000Y-90805000D01*
X147193000Y-90805000D01*
X147193000Y-92404250D01*
X147351750Y-92563000D01*
X149692310Y-92563000D01*
X149925699Y-92466327D01*
X150104327Y-92287698D01*
X150201000Y-92054309D01*
X150201000Y-90963750D01*
X150042250Y-90805000D01*
X147193000Y-90805000D01*
X146939000Y-90805000D01*
X146919000Y-90805000D01*
X146919000Y-90551000D01*
X146939000Y-90551000D01*
X146939000Y-88951750D01*
X147193000Y-88951750D01*
X147193000Y-90551000D01*
X150042250Y-90551000D01*
X150201000Y-90392250D01*
X150201000Y-89301691D01*
X150104327Y-89068302D01*
X149925699Y-88889673D01*
X149692310Y-88793000D01*
X147351750Y-88793000D01*
X147193000Y-88951750D01*
X146939000Y-88951750D01*
X146780250Y-88793000D01*
X144685000Y-88793000D01*
X144685000Y-88765440D01*
X149566000Y-88765440D01*
X149801317Y-88721162D01*
X150017441Y-88582090D01*
X150162431Y-88369890D01*
X150213440Y-88118000D01*
X150213440Y-87630000D01*
X150254917Y-87630000D01*
X150321341Y-87696540D01*
X150680630Y-87845730D01*
X151069663Y-87846069D01*
X151429212Y-87697507D01*
X151704540Y-87422659D01*
X151853730Y-87063370D01*
X151854069Y-86674337D01*
X151705507Y-86314788D01*
X151430659Y-86039460D01*
X151071370Y-85890270D01*
X150682337Y-85889931D01*
X150322788Y-86038493D01*
X150255163Y-86106000D01*
X150213440Y-86106000D01*
X150213440Y-85685000D01*
X164315000Y-85685000D01*
X164315000Y-108636225D01*
G36*
X157353000Y-90043000D02*
X157373000Y-90043000D01*
X157373000Y-90297000D01*
X157353000Y-90297000D01*
X157353000Y-91503817D01*
X157585026Y-91624958D01*
X158000947Y-91452688D01*
X158432821Y-91058490D01*
X158490336Y-90935772D01*
X158706330Y-91259029D01*
X159192511Y-91583885D01*
X159766000Y-91697959D01*
X160339489Y-91583885D01*
X160825670Y-91259029D01*
X161036000Y-90944248D01*
X161246330Y-91259029D01*
X161544000Y-91457926D01*
X161544000Y-91891450D01*
X160499725Y-92935725D01*
X160462491Y-92991450D01*
X160188910Y-92991450D01*
X159953593Y-93035728D01*
X159737469Y-93174800D01*
X159592479Y-93387000D01*
X159541470Y-93638890D01*
X159541470Y-94904900D01*
X158993775Y-95452595D01*
X158945996Y-95212395D01*
X158879834Y-95113377D01*
X158780816Y-94965185D01*
X156210000Y-92394370D01*
X156210000Y-91232664D01*
X156451053Y-91452688D01*
X156866974Y-91624958D01*
X157099000Y-91503817D01*
X157099000Y-90297000D01*
X157079000Y-90297000D01*
X157079000Y-90043000D01*
X157099000Y-90043000D01*
X157099000Y-90023000D01*
X157353000Y-90023000D01*
X157353000Y-90043000D01*
X157353000Y-90043000D01*
G37*
X157353000Y-90043000D02*
X157373000Y-90043000D01*
X157373000Y-90297000D01*
X157353000Y-90297000D01*
X157353000Y-91503817D01*
X157585026Y-91624958D01*
X158000947Y-91452688D01*
X158432821Y-91058490D01*
X158490336Y-90935772D01*
X158706330Y-91259029D01*
X159192511Y-91583885D01*
X159766000Y-91697959D01*
X160339489Y-91583885D01*
X160825670Y-91259029D01*
X161036000Y-90944248D01*
X161246330Y-91259029D01*
X161544000Y-91457926D01*
X161544000Y-91891450D01*
X160499725Y-92935725D01*
X160462491Y-92991450D01*
X160188910Y-92991450D01*
X159953593Y-93035728D01*
X159737469Y-93174800D01*
X159592479Y-93387000D01*
X159541470Y-93638890D01*
X159541470Y-94904900D01*
X158993775Y-95452595D01*
X158945996Y-95212395D01*
X158879834Y-95113377D01*
X158780816Y-94965185D01*
X156210000Y-92394370D01*
X156210000Y-91232664D01*
X156451053Y-91452688D01*
X156866974Y-91624958D01*
X157099000Y-91503817D01*
X157099000Y-90297000D01*
X157079000Y-90297000D01*
X157079000Y-90043000D01*
X157099000Y-90043000D01*
X157099000Y-90023000D01*
X157353000Y-90023000D01*
X157353000Y-90043000D01*
M02*
