G04 #@! TF.FileFunction,Legend,Top*
%FSLAX46Y46*%
G04 Gerber Fmt 4.6, Leading zero omitted, Abs format (unit mm)*
G04 Created by KiCad (PCBNEW 4.0.2-1.fc23-product) date Sat 17 Mar 2018 10:09:07 PM EDT*
%MOMM*%
G01*
G04 APERTURE LIST*
%ADD10C,0.100000*%
%ADD11C,0.150000*%
%ADD12R,2.500000X5.000000*%
%ADD13R,1.400000X1.400000*%
%ADD14C,1.400000*%
%ADD15R,1.300000X1.300000*%
%ADD16C,1.300000*%
%ADD17C,1.699260*%
%ADD18R,1.699260X1.699260*%
%ADD19O,1.600000X2.300000*%
%ADD20R,1.727200X1.727200*%
%ADD21O,1.727200X1.727200*%
G04 APERTURE END LIST*
D10*
D11*
X139009500Y-64869500D02*
X145009500Y-64869500D01*
X145009500Y-69369500D02*
X139009500Y-69369500D01*
X143786500Y-61844500D02*
X138788500Y-61844500D01*
X143778500Y-61984500D02*
X141441500Y-61984500D01*
X141133500Y-61984500D02*
X138796500Y-61984500D01*
X143762500Y-62124500D02*
X141760500Y-62124500D01*
X140814500Y-62124500D02*
X138812500Y-62124500D01*
X143738500Y-62264500D02*
X141907500Y-62264500D01*
X140667500Y-62264500D02*
X138836500Y-62264500D01*
X143705500Y-62404500D02*
X141999500Y-62404500D01*
X140575500Y-62404500D02*
X138869500Y-62404500D01*
X143664500Y-62544500D02*
X142055500Y-62544500D01*
X140519500Y-62544500D02*
X138910500Y-62544500D01*
X143614500Y-62684500D02*
X142082500Y-62684500D01*
X140492500Y-62684500D02*
X138960500Y-62684500D01*
X143553500Y-62824500D02*
X142085500Y-62824500D01*
X140489500Y-62824500D02*
X139021500Y-62824500D01*
X143483500Y-62964500D02*
X142063500Y-62964500D01*
X140511500Y-62964500D02*
X139091500Y-62964500D01*
X143401500Y-63104500D02*
X142013500Y-63104500D01*
X140561500Y-63104500D02*
X139173500Y-63104500D01*
X143306500Y-63244500D02*
X141931500Y-63244500D01*
X140643500Y-63244500D02*
X139268500Y-63244500D01*
X143195500Y-63384500D02*
X141799500Y-63384500D01*
X140775500Y-63384500D02*
X139379500Y-63384500D01*
X143067500Y-63524500D02*
X141552500Y-63524500D01*
X141022500Y-63524500D02*
X139507500Y-63524500D01*
X142918500Y-63664500D02*
X139656500Y-63664500D01*
X142739500Y-63804500D02*
X139835500Y-63804500D01*
X142520500Y-63944500D02*
X140054500Y-63944500D01*
X142231500Y-64084500D02*
X140343500Y-64084500D01*
X141759500Y-64224500D02*
X140815500Y-64224500D01*
X142087500Y-62769500D02*
G75*
G03X142087500Y-62769500I-800000J0D01*
G01*
X143825000Y-61769500D02*
G75*
G03X143825000Y-61769500I-2537500J0D01*
G01*
X154369020Y-68386960D02*
X155766020Y-68386960D01*
X149924020Y-68386960D02*
X148400020Y-68386960D01*
X150305020Y-67624960D02*
X150305020Y-69148960D01*
X150051020Y-67624960D02*
X150051020Y-69148960D01*
X149797020Y-68386960D02*
X149797020Y-69148960D01*
X149797020Y-69148960D02*
X154369020Y-69148960D01*
X154369020Y-69148960D02*
X154369020Y-67624960D01*
X154369020Y-67624960D02*
X149797020Y-67624960D01*
X149797020Y-67624960D02*
X149797020Y-68386960D01*
X125721000Y-67873500D02*
X126991000Y-67873500D01*
X125721000Y-60523500D02*
X126991000Y-60523500D01*
X137931000Y-60523500D02*
X136661000Y-60523500D01*
X137931000Y-67873500D02*
X136661000Y-67873500D01*
X125721000Y-67873500D02*
X125721000Y-60523500D01*
X137931000Y-67873500D02*
X137931000Y-60523500D01*
X126991000Y-67873500D02*
X126991000Y-69158500D01*
X158877000Y-64008000D02*
X158877000Y-69088000D01*
X158597000Y-61188000D02*
X160147000Y-61188000D01*
X161417000Y-61468000D02*
X161417000Y-64008000D01*
X161417000Y-64008000D02*
X158877000Y-64008000D01*
X158877000Y-69088000D02*
X163957000Y-69088000D01*
X163957000Y-69088000D02*
X163957000Y-64008000D01*
X158597000Y-61188000D02*
X158597000Y-62738000D01*
X163957000Y-61468000D02*
X161417000Y-61468000D01*
X163957000Y-64008000D02*
X163957000Y-61468000D01*
X155662381Y-57038833D02*
X155662381Y-56419785D01*
X156043333Y-56753119D01*
X156043333Y-56610261D01*
X156090952Y-56515023D01*
X156138571Y-56467404D01*
X156233810Y-56419785D01*
X156471905Y-56419785D01*
X156567143Y-56467404D01*
X156614762Y-56515023D01*
X156662381Y-56610261D01*
X156662381Y-56895976D01*
X156614762Y-56991214D01*
X156567143Y-57038833D01*
X159250119Y-56991214D02*
X159202500Y-56943595D01*
X159154881Y-56848357D01*
X159154881Y-56610261D01*
X159202500Y-56515023D01*
X159250119Y-56467404D01*
X159345357Y-56419785D01*
X159440595Y-56419785D01*
X159583452Y-56467404D01*
X160154881Y-57038833D01*
X160154881Y-56419785D01*
X146366643Y-65286166D02*
X146414262Y-65333785D01*
X146461881Y-65476642D01*
X146461881Y-65571880D01*
X146414262Y-65714738D01*
X146319024Y-65809976D01*
X146223786Y-65857595D01*
X146033310Y-65905214D01*
X145890452Y-65905214D01*
X145699976Y-65857595D01*
X145604738Y-65809976D01*
X145509500Y-65714738D01*
X145461881Y-65571880D01*
X145461881Y-65476642D01*
X145509500Y-65333785D01*
X145557119Y-65286166D01*
X146461881Y-64333785D02*
X146461881Y-64905214D01*
X146461881Y-64619500D02*
X145461881Y-64619500D01*
X145604738Y-64714738D01*
X145699976Y-64809976D01*
X145747595Y-64905214D01*
X139144643Y-58936166D02*
X139192262Y-58983785D01*
X139239881Y-59126642D01*
X139239881Y-59221880D01*
X139192262Y-59364738D01*
X139097024Y-59459976D01*
X139001786Y-59507595D01*
X138811310Y-59555214D01*
X138668452Y-59555214D01*
X138477976Y-59507595D01*
X138382738Y-59459976D01*
X138287500Y-59364738D01*
X138239881Y-59221880D01*
X138239881Y-59126642D01*
X138287500Y-58983785D01*
X138335119Y-58936166D01*
X138335119Y-58555214D02*
X138287500Y-58507595D01*
X138239881Y-58412357D01*
X138239881Y-58174261D01*
X138287500Y-58079023D01*
X138335119Y-58031404D01*
X138430357Y-57983785D01*
X138525595Y-57983785D01*
X138668452Y-58031404D01*
X139239881Y-58602833D01*
X139239881Y-57983785D01*
X155954881Y-67377595D02*
X154954881Y-67377595D01*
X154954881Y-67139500D01*
X155002500Y-66996642D01*
X155097738Y-66901404D01*
X155192976Y-66853785D01*
X155383452Y-66806166D01*
X155526310Y-66806166D01*
X155716786Y-66853785D01*
X155812024Y-66901404D01*
X155907262Y-66996642D01*
X155954881Y-67139500D01*
X155954881Y-67377595D01*
X155954881Y-65853785D02*
X155954881Y-66425214D01*
X155954881Y-66139500D02*
X154954881Y-66139500D01*
X155097738Y-66234738D01*
X155192976Y-66329976D01*
X155240595Y-66425214D01*
X126718381Y-58984690D02*
X125718381Y-58984690D01*
X126623143Y-57937071D02*
X126670762Y-57984690D01*
X126718381Y-58127547D01*
X126718381Y-58222785D01*
X126670762Y-58365643D01*
X126575524Y-58460881D01*
X126480286Y-58508500D01*
X126289810Y-58556119D01*
X126146952Y-58556119D01*
X125956476Y-58508500D01*
X125861238Y-58460881D01*
X125766000Y-58365643D01*
X125718381Y-58222785D01*
X125718381Y-58127547D01*
X125766000Y-57984690D01*
X125813619Y-57937071D01*
X126718381Y-56984690D02*
X126718381Y-57556119D01*
X126718381Y-57270405D02*
X125718381Y-57270405D01*
X125861238Y-57365643D01*
X125956476Y-57460881D01*
X126004095Y-57556119D01*
X158099381Y-62476095D02*
X157099381Y-62476095D01*
X157099381Y-62095142D01*
X157147000Y-61999904D01*
X157194619Y-61952285D01*
X157289857Y-61904666D01*
X157432714Y-61904666D01*
X157527952Y-61952285D01*
X157575571Y-61999904D01*
X157623190Y-62095142D01*
X157623190Y-62476095D01*
X158099381Y-60952285D02*
X158099381Y-61523714D01*
X158099381Y-61238000D02*
X157099381Y-61238000D01*
X157242238Y-61333238D01*
X157337476Y-61428476D01*
X157385095Y-61523714D01*
X163647381Y-56419785D02*
X163647381Y-56991214D01*
X163647381Y-56705500D02*
X162647381Y-56705500D01*
X162790238Y-56800738D01*
X162885476Y-56895976D01*
X162933095Y-56991214D01*
X152503214Y-56515023D02*
X153169881Y-56515023D01*
X152122262Y-56753119D02*
X152836548Y-56991214D01*
X152836548Y-56372166D01*
X148677381Y-56467404D02*
X148677381Y-56943595D01*
X149153571Y-56991214D01*
X149105952Y-56943595D01*
X149058333Y-56848357D01*
X149058333Y-56610261D01*
X149105952Y-56515023D01*
X149153571Y-56467404D01*
X149248810Y-56419785D01*
X149486905Y-56419785D01*
X149582143Y-56467404D01*
X149629762Y-56515023D01*
X149677381Y-56610261D01*
X149677381Y-56848357D01*
X149629762Y-56943595D01*
X149582143Y-56991214D01*
X145184881Y-56515023D02*
X145184881Y-56705500D01*
X145232500Y-56800738D01*
X145280119Y-56848357D01*
X145422976Y-56943595D01*
X145613452Y-56991214D01*
X145994405Y-56991214D01*
X146089643Y-56943595D01*
X146137262Y-56895976D01*
X146184881Y-56800738D01*
X146184881Y-56610261D01*
X146137262Y-56515023D01*
X146089643Y-56467404D01*
X145994405Y-56419785D01*
X145756310Y-56419785D01*
X145661071Y-56467404D01*
X145613452Y-56515023D01*
X145565833Y-56610261D01*
X145565833Y-56800738D01*
X145613452Y-56895976D01*
X145661071Y-56943595D01*
X145756310Y-56991214D01*
X141692381Y-57038833D02*
X141692381Y-56372166D01*
X142692381Y-56800738D01*
X138628452Y-56800738D02*
X138580833Y-56895976D01*
X138533214Y-56943595D01*
X138437976Y-56991214D01*
X138390357Y-56991214D01*
X138295119Y-56943595D01*
X138247500Y-56895976D01*
X138199881Y-56800738D01*
X138199881Y-56610261D01*
X138247500Y-56515023D01*
X138295119Y-56467404D01*
X138390357Y-56419785D01*
X138437976Y-56419785D01*
X138533214Y-56467404D01*
X138580833Y-56515023D01*
X138628452Y-56610261D01*
X138628452Y-56800738D01*
X138676071Y-56895976D01*
X138723690Y-56943595D01*
X138818929Y-56991214D01*
X139009405Y-56991214D01*
X139104643Y-56943595D01*
X139152262Y-56895976D01*
X139199881Y-56800738D01*
X139199881Y-56610261D01*
X139152262Y-56515023D01*
X139104643Y-56467404D01*
X139009405Y-56419785D01*
X138818929Y-56419785D01*
X138723690Y-56467404D01*
X138676071Y-56515023D01*
X138628452Y-56610261D01*
%LPC*%
D12*
X156210000Y-52895500D03*
X159702500Y-52895500D03*
D13*
X139509500Y-67119500D03*
D14*
X144509500Y-67119500D03*
D15*
X141287500Y-60769500D03*
D16*
X141287500Y-62769500D03*
D17*
X157163020Y-68386960D03*
D18*
X147003020Y-68386960D03*
D19*
X128016000Y-68008500D03*
X130556000Y-68008500D03*
X133096000Y-68008500D03*
X135636000Y-68008500D03*
X135636000Y-60388500D03*
X133096000Y-60388500D03*
X130556000Y-60388500D03*
X128016000Y-60388500D03*
D20*
X160147000Y-62738000D03*
D21*
X162687000Y-62738000D03*
X160147000Y-65278000D03*
X162687000Y-65278000D03*
X160147000Y-67818000D03*
X162687000Y-67818000D03*
D12*
X163195000Y-52895500D03*
X152717500Y-52895500D03*
X149225000Y-52895500D03*
X145732500Y-52895500D03*
X142240000Y-52895500D03*
X138747500Y-52895500D03*
M02*
