G04 #@! TF.FileFunction,Legend,Top*
%FSLAX46Y46*%
G04 Gerber Fmt 4.6, Leading zero omitted, Abs format (unit mm)*
G04 Created by KiCad (PCBNEW 4.0.2-1.fc23-product) date Thu 02 Nov 2017 11:38:22 PM EDT*
%MOMM*%
G01*
G04 APERTURE LIST*
%ADD10C,0.100000*%
%ADD11C,0.125000*%
%ADD12C,0.150000*%
%ADD13C,1.699260*%
%ADD14R,1.699260X1.699260*%
%ADD15O,2.300000X1.600000*%
%ADD16R,1.727200X1.727200*%
%ADD17O,1.727200X1.727200*%
%ADD18R,5.000000X2.500000*%
G04 APERTURE END LIST*
D10*
D11*
X145769667Y-119975333D02*
X145069667Y-119975333D01*
X145069667Y-119708667D01*
X145103000Y-119642000D01*
X145136333Y-119608667D01*
X145203000Y-119575333D01*
X145303000Y-119575333D01*
X145369667Y-119608667D01*
X145403000Y-119642000D01*
X145436333Y-119708667D01*
X145436333Y-119975333D01*
X145736333Y-119308667D02*
X145769667Y-119208667D01*
X145769667Y-119042000D01*
X145736333Y-118975333D01*
X145703000Y-118942000D01*
X145636333Y-118908667D01*
X145569667Y-118908667D01*
X145503000Y-118942000D01*
X145469667Y-118975333D01*
X145436333Y-119042000D01*
X145403000Y-119175333D01*
X145369667Y-119242000D01*
X145336333Y-119275333D01*
X145269667Y-119308667D01*
X145203000Y-119308667D01*
X145136333Y-119275333D01*
X145103000Y-119242000D01*
X145069667Y-119175333D01*
X145069667Y-119008667D01*
X145103000Y-118908667D01*
X145769667Y-118608666D02*
X145069667Y-118608666D01*
X145769667Y-118208666D01*
X145069667Y-118208666D01*
X145736333Y-117608667D02*
X145769667Y-117675333D01*
X145769667Y-117808667D01*
X145736333Y-117875333D01*
X145669667Y-117908667D01*
X145403000Y-117908667D01*
X145336333Y-117875333D01*
X145303000Y-117808667D01*
X145303000Y-117675333D01*
X145336333Y-117608667D01*
X145403000Y-117575333D01*
X145469667Y-117575333D01*
X145536333Y-117908667D01*
X145736333Y-117008667D02*
X145769667Y-117075333D01*
X145769667Y-117208667D01*
X145736333Y-117275333D01*
X145669667Y-117308667D01*
X145403000Y-117308667D01*
X145336333Y-117275333D01*
X145303000Y-117208667D01*
X145303000Y-117075333D01*
X145336333Y-117008667D01*
X145403000Y-116975333D01*
X145469667Y-116975333D01*
X145536333Y-117308667D01*
X146003000Y-116475333D02*
X146003000Y-116642000D01*
X145003000Y-116642000D01*
X145003000Y-116475333D01*
X145303000Y-116308666D02*
X145303000Y-116042000D01*
X145069667Y-116208666D02*
X145669667Y-116208666D01*
X145736333Y-116175333D01*
X145769667Y-116108666D01*
X145769667Y-116042000D01*
X146003000Y-115875333D02*
X146003000Y-115708666D01*
X145003000Y-115708666D01*
X145003000Y-115875333D01*
X146541333Y-119542000D02*
X146508000Y-119575333D01*
X146474667Y-119642000D01*
X146474667Y-119708667D01*
X146508000Y-119775333D01*
X146541333Y-119808667D01*
X146608000Y-119842000D01*
X146674667Y-119842000D01*
X146741333Y-119808667D01*
X146774667Y-119775333D01*
X146808000Y-119708667D01*
X146808000Y-119642000D01*
X146774667Y-119575333D01*
X146741333Y-119542000D01*
X146474667Y-119542000D02*
X146741333Y-119542000D01*
X146774667Y-119508667D01*
X146774667Y-119475333D01*
X146741333Y-119408667D01*
X146674667Y-119375333D01*
X146508000Y-119375333D01*
X146408000Y-119442000D01*
X146341333Y-119542000D01*
X146308000Y-119675333D01*
X146341333Y-119808667D01*
X146408000Y-119908667D01*
X146508000Y-119975333D01*
X146641333Y-120008667D01*
X146774667Y-119975333D01*
X146874667Y-119908667D01*
X146941333Y-119808667D01*
X146974667Y-119675333D01*
X146941333Y-119542000D01*
X146874667Y-119442000D01*
X146874667Y-119075333D02*
X146174667Y-119075333D01*
X146608000Y-119008667D02*
X146874667Y-118808667D01*
X146408000Y-118808667D02*
X146674667Y-119075333D01*
X146874667Y-118408666D02*
X146841333Y-118475333D01*
X146808000Y-118508666D01*
X146741333Y-118542000D01*
X146541333Y-118542000D01*
X146474667Y-118508666D01*
X146441333Y-118475333D01*
X146408000Y-118408666D01*
X146408000Y-118308666D01*
X146441333Y-118242000D01*
X146474667Y-118208666D01*
X146541333Y-118175333D01*
X146741333Y-118175333D01*
X146808000Y-118208666D01*
X146841333Y-118242000D01*
X146874667Y-118308666D01*
X146874667Y-118408666D01*
X146874667Y-117875333D02*
X146408000Y-117875333D01*
X146474667Y-117875333D02*
X146441333Y-117842000D01*
X146408000Y-117775333D01*
X146408000Y-117675333D01*
X146441333Y-117608667D01*
X146508000Y-117575333D01*
X146874667Y-117575333D01*
X146508000Y-117575333D02*
X146441333Y-117542000D01*
X146408000Y-117475333D01*
X146408000Y-117375333D01*
X146441333Y-117308667D01*
X146508000Y-117275333D01*
X146874667Y-117275333D01*
X146874667Y-116942000D02*
X146408000Y-116942000D01*
X146174667Y-116942000D02*
X146208000Y-116975334D01*
X146241333Y-116942000D01*
X146208000Y-116908667D01*
X146174667Y-116942000D01*
X146241333Y-116942000D01*
X146874667Y-116308667D02*
X146174667Y-116308667D01*
X146841333Y-116308667D02*
X146874667Y-116375334D01*
X146874667Y-116508667D01*
X146841333Y-116575334D01*
X146808000Y-116608667D01*
X146741333Y-116642001D01*
X146541333Y-116642001D01*
X146474667Y-116608667D01*
X146441333Y-116575334D01*
X146408000Y-116508667D01*
X146408000Y-116375334D01*
X146441333Y-116308667D01*
X146874667Y-115875334D02*
X146841333Y-115942001D01*
X146808000Y-115975334D01*
X146741333Y-116008668D01*
X146541333Y-116008668D01*
X146474667Y-115975334D01*
X146441333Y-115942001D01*
X146408000Y-115875334D01*
X146408000Y-115775334D01*
X146441333Y-115708668D01*
X146474667Y-115675334D01*
X146541333Y-115642001D01*
X146741333Y-115642001D01*
X146808000Y-115675334D01*
X146841333Y-115708668D01*
X146874667Y-115775334D01*
X146874667Y-115875334D01*
X146874667Y-115342001D02*
X146408000Y-115342001D01*
X146541333Y-115342001D02*
X146474667Y-115308668D01*
X146441333Y-115275335D01*
X146408000Y-115208668D01*
X146408000Y-115142001D01*
X146841333Y-114642002D02*
X146874667Y-114708668D01*
X146874667Y-114842002D01*
X146841333Y-114908668D01*
X146774667Y-114942002D01*
X146508000Y-114942002D01*
X146441333Y-114908668D01*
X146408000Y-114842002D01*
X146408000Y-114708668D01*
X146441333Y-114642002D01*
X146508000Y-114608668D01*
X146574667Y-114608668D01*
X146641333Y-114942002D01*
X146174667Y-114008668D02*
X146174667Y-114142002D01*
X146208000Y-114208668D01*
X146241333Y-114242002D01*
X146341333Y-114308668D01*
X146474667Y-114342002D01*
X146741333Y-114342002D01*
X146808000Y-114308668D01*
X146841333Y-114275335D01*
X146874667Y-114208668D01*
X146874667Y-114075335D01*
X146841333Y-114008668D01*
X146808000Y-113975335D01*
X146741333Y-113942002D01*
X146574667Y-113942002D01*
X146508000Y-113975335D01*
X146474667Y-114008668D01*
X146441333Y-114075335D01*
X146441333Y-114208668D01*
X146474667Y-114275335D01*
X146508000Y-114308668D01*
X146574667Y-114342002D01*
X146408000Y-113342001D02*
X146874667Y-113342001D01*
X146141333Y-113508668D02*
X146641333Y-113675335D01*
X146641333Y-113242001D01*
X147513000Y-120042000D02*
X147979667Y-119875333D01*
X147513000Y-119708667D01*
X147979667Y-119075334D02*
X147979667Y-119475334D01*
X147979667Y-119275334D02*
X147279667Y-119275334D01*
X147379667Y-119342000D01*
X147446333Y-119408667D01*
X147479667Y-119475334D01*
X147913000Y-118775333D02*
X147946333Y-118742000D01*
X147979667Y-118775333D01*
X147946333Y-118808667D01*
X147913000Y-118775333D01*
X147979667Y-118775333D01*
X147279667Y-118308667D02*
X147279667Y-118242000D01*
X147313000Y-118175334D01*
X147346333Y-118142000D01*
X147413000Y-118108667D01*
X147546333Y-118075334D01*
X147713000Y-118075334D01*
X147846333Y-118108667D01*
X147913000Y-118142000D01*
X147946333Y-118175334D01*
X147979667Y-118242000D01*
X147979667Y-118308667D01*
X147946333Y-118375334D01*
X147913000Y-118408667D01*
X147846333Y-118442000D01*
X147713000Y-118475334D01*
X147546333Y-118475334D01*
X147413000Y-118442000D01*
X147346333Y-118408667D01*
X147313000Y-118375334D01*
X147279667Y-118308667D01*
D12*
X161038540Y-101854520D02*
X161038540Y-103251520D01*
X161038540Y-97409520D02*
X161038540Y-95885520D01*
X161800540Y-97790520D02*
X160276540Y-97790520D01*
X161800540Y-97536520D02*
X160276540Y-97536520D01*
X161038540Y-97282520D02*
X160276540Y-97282520D01*
X160276540Y-97282520D02*
X160276540Y-101854520D01*
X160276540Y-101854520D02*
X161800540Y-101854520D01*
X161800540Y-101854520D02*
X161800540Y-97282520D01*
X161800540Y-97282520D02*
X161038540Y-97282520D01*
X162933000Y-119643000D02*
X162933000Y-118373000D01*
X155583000Y-119643000D02*
X155583000Y-118373000D01*
X155583000Y-107433000D02*
X155583000Y-108703000D01*
X162933000Y-107433000D02*
X162933000Y-108703000D01*
X162933000Y-119643000D02*
X155583000Y-119643000D01*
X162933000Y-107433000D02*
X155583000Y-107433000D01*
X162933000Y-118373000D02*
X164218000Y-118373000D01*
X161036000Y-86360000D02*
X155956000Y-86360000D01*
X163856000Y-86080000D02*
X163856000Y-87630000D01*
X163576000Y-88900000D02*
X161036000Y-88900000D01*
X161036000Y-88900000D02*
X161036000Y-86360000D01*
X155956000Y-86360000D02*
X155956000Y-91440000D01*
X155956000Y-91440000D02*
X161036000Y-91440000D01*
X163856000Y-86080000D02*
X162306000Y-86080000D01*
X163576000Y-91440000D02*
X163576000Y-88900000D01*
X161036000Y-91440000D02*
X163576000Y-91440000D01*
X158297905Y-97940381D02*
X158297905Y-96940381D01*
X158536000Y-96940381D01*
X158678858Y-96988000D01*
X158774096Y-97083238D01*
X158821715Y-97178476D01*
X158869334Y-97368952D01*
X158869334Y-97511810D01*
X158821715Y-97702286D01*
X158774096Y-97797524D01*
X158678858Y-97892762D01*
X158536000Y-97940381D01*
X158297905Y-97940381D01*
X159821715Y-97940381D02*
X159250286Y-97940381D01*
X159536000Y-97940381D02*
X159536000Y-96940381D01*
X159440762Y-97083238D01*
X159345524Y-97178476D01*
X159250286Y-97226095D01*
X151745810Y-119688381D02*
X151745810Y-118688381D01*
X152793429Y-119593143D02*
X152745810Y-119640762D01*
X152602953Y-119688381D01*
X152507715Y-119688381D01*
X152364857Y-119640762D01*
X152269619Y-119545524D01*
X152222000Y-119450286D01*
X152174381Y-119259810D01*
X152174381Y-119116952D01*
X152222000Y-118926476D01*
X152269619Y-118831238D01*
X152364857Y-118736000D01*
X152507715Y-118688381D01*
X152602953Y-118688381D01*
X152745810Y-118736000D01*
X152793429Y-118783619D01*
X153745810Y-119688381D02*
X153174381Y-119688381D01*
X153460095Y-119688381D02*
X153460095Y-118688381D01*
X153364857Y-118831238D01*
X153269619Y-118926476D01*
X153174381Y-118974095D01*
X155979905Y-93162381D02*
X155979905Y-92162381D01*
X156360858Y-92162381D01*
X156456096Y-92210000D01*
X156503715Y-92257619D01*
X156551334Y-92352857D01*
X156551334Y-92495714D01*
X156503715Y-92590952D01*
X156456096Y-92638571D01*
X156360858Y-92686190D01*
X155979905Y-92686190D01*
X157503715Y-93162381D02*
X156932286Y-93162381D01*
X157218000Y-93162381D02*
X157218000Y-92162381D01*
X157122762Y-92305238D01*
X157027524Y-92400476D01*
X156932286Y-92448095D01*
X150934096Y-107400381D02*
X150934096Y-106400381D01*
X150934096Y-107352762D02*
X150838858Y-107400381D01*
X150648381Y-107400381D01*
X150553143Y-107352762D01*
X150505524Y-107305143D01*
X150457905Y-107209905D01*
X150457905Y-106924190D01*
X150505524Y-106828952D01*
X150553143Y-106781333D01*
X150648381Y-106733714D01*
X150838858Y-106733714D01*
X150934096Y-106781333D01*
X151362667Y-106495619D02*
X151410286Y-106448000D01*
X151505524Y-106400381D01*
X151743620Y-106400381D01*
X151838858Y-106448000D01*
X151886477Y-106495619D01*
X151934096Y-106590857D01*
X151934096Y-106686095D01*
X151886477Y-106828952D01*
X151315048Y-107400381D01*
X151934096Y-107400381D01*
X150965905Y-111146381D02*
X150965905Y-110622571D01*
X150918286Y-110527333D01*
X150823048Y-110479714D01*
X150632571Y-110479714D01*
X150537333Y-110527333D01*
X150965905Y-111098762D02*
X150870667Y-111146381D01*
X150632571Y-111146381D01*
X150537333Y-111098762D01*
X150489714Y-111003524D01*
X150489714Y-110908286D01*
X150537333Y-110813048D01*
X150632571Y-110765429D01*
X150870667Y-110765429D01*
X150965905Y-110717810D01*
X151965905Y-111146381D02*
X151394476Y-111146381D01*
X151680190Y-111146381D02*
X151680190Y-110146381D01*
X151584952Y-110289238D01*
X151489714Y-110384476D01*
X151394476Y-110432095D01*
X152537333Y-110574952D02*
X152442095Y-110527333D01*
X152394476Y-110479714D01*
X152346857Y-110384476D01*
X152346857Y-110336857D01*
X152394476Y-110241619D01*
X152442095Y-110194000D01*
X152537333Y-110146381D01*
X152727810Y-110146381D01*
X152823048Y-110194000D01*
X152870667Y-110241619D01*
X152918286Y-110336857D01*
X152918286Y-110384476D01*
X152870667Y-110479714D01*
X152823048Y-110527333D01*
X152727810Y-110574952D01*
X152537333Y-110574952D01*
X152442095Y-110622571D01*
X152394476Y-110670190D01*
X152346857Y-110765429D01*
X152346857Y-110955905D01*
X152394476Y-111051143D01*
X152442095Y-111098762D01*
X152537333Y-111146381D01*
X152727810Y-111146381D01*
X152823048Y-111098762D01*
X152870667Y-111051143D01*
X152918286Y-110955905D01*
X152918286Y-110765429D01*
X152870667Y-110670190D01*
X152823048Y-110622571D01*
X152727810Y-110574952D01*
X150624571Y-103462381D02*
X150529333Y-103414762D01*
X150481714Y-103319524D01*
X150481714Y-102462381D01*
X151005524Y-103462381D02*
X151005524Y-102795714D01*
X151005524Y-102462381D02*
X150957905Y-102510000D01*
X151005524Y-102557619D01*
X151053143Y-102510000D01*
X151005524Y-102462381D01*
X151005524Y-102557619D01*
X151910286Y-103462381D02*
X151910286Y-102462381D01*
X151910286Y-103414762D02*
X151815048Y-103462381D01*
X151624571Y-103462381D01*
X151529333Y-103414762D01*
X151481714Y-103367143D01*
X151434095Y-103271905D01*
X151434095Y-102986190D01*
X151481714Y-102890952D01*
X151529333Y-102843333D01*
X151624571Y-102795714D01*
X151815048Y-102795714D01*
X151910286Y-102843333D01*
X151005619Y-95111714D02*
X151005619Y-95921238D01*
X150958000Y-96016476D01*
X150910381Y-96064095D01*
X150815142Y-96111714D01*
X150672285Y-96111714D01*
X150577047Y-96064095D01*
X151005619Y-95730762D02*
X150910381Y-95778381D01*
X150719904Y-95778381D01*
X150624666Y-95730762D01*
X150577047Y-95683143D01*
X150529428Y-95587905D01*
X150529428Y-95302190D01*
X150577047Y-95206952D01*
X150624666Y-95159333D01*
X150719904Y-95111714D01*
X150910381Y-95111714D01*
X151005619Y-95159333D01*
X151910381Y-95778381D02*
X151910381Y-95254571D01*
X151862762Y-95159333D01*
X151767524Y-95111714D01*
X151577047Y-95111714D01*
X151481809Y-95159333D01*
X151910381Y-95730762D02*
X151815143Y-95778381D01*
X151577047Y-95778381D01*
X151481809Y-95730762D01*
X151434190Y-95635524D01*
X151434190Y-95540286D01*
X151481809Y-95445048D01*
X151577047Y-95397429D01*
X151815143Y-95397429D01*
X151910381Y-95349810D01*
X152243714Y-95111714D02*
X152624666Y-95111714D01*
X152386571Y-94778381D02*
X152386571Y-95635524D01*
X152434190Y-95730762D01*
X152529428Y-95778381D01*
X152624666Y-95778381D01*
X153338953Y-95730762D02*
X153243715Y-95778381D01*
X153053238Y-95778381D01*
X152958000Y-95730762D01*
X152910381Y-95635524D01*
X152910381Y-95254571D01*
X152958000Y-95159333D01*
X153053238Y-95111714D01*
X153243715Y-95111714D01*
X153338953Y-95159333D01*
X153386572Y-95254571D01*
X153386572Y-95349810D01*
X152910381Y-95445048D01*
X150926191Y-99524381D02*
X150926191Y-98524381D01*
X150926191Y-99476762D02*
X150830953Y-99524381D01*
X150640476Y-99524381D01*
X150545238Y-99476762D01*
X150497619Y-99429143D01*
X150450000Y-99333905D01*
X150450000Y-99048190D01*
X150497619Y-98952952D01*
X150545238Y-98905333D01*
X150640476Y-98857714D01*
X150830953Y-98857714D01*
X150926191Y-98905333D01*
X151830953Y-99524381D02*
X151830953Y-99000571D01*
X151783334Y-98905333D01*
X151688096Y-98857714D01*
X151497619Y-98857714D01*
X151402381Y-98905333D01*
X151830953Y-99476762D02*
X151735715Y-99524381D01*
X151497619Y-99524381D01*
X151402381Y-99476762D01*
X151354762Y-99381524D01*
X151354762Y-99286286D01*
X151402381Y-99191048D01*
X151497619Y-99143429D01*
X151735715Y-99143429D01*
X151830953Y-99095810D01*
X152164286Y-98857714D02*
X152545238Y-98857714D01*
X152307143Y-98524381D02*
X152307143Y-99381524D01*
X152354762Y-99476762D01*
X152450000Y-99524381D01*
X152545238Y-99524381D01*
X151013524Y-89633714D02*
X151013524Y-90443238D01*
X150965905Y-90538476D01*
X150918286Y-90586095D01*
X150823047Y-90633714D01*
X150680190Y-90633714D01*
X150584952Y-90586095D01*
X151013524Y-90252762D02*
X150918286Y-90300381D01*
X150727809Y-90300381D01*
X150632571Y-90252762D01*
X150584952Y-90205143D01*
X150537333Y-90109905D01*
X150537333Y-89824190D01*
X150584952Y-89728952D01*
X150632571Y-89681333D01*
X150727809Y-89633714D01*
X150918286Y-89633714D01*
X151013524Y-89681333D01*
X151489714Y-89633714D02*
X151489714Y-90300381D01*
X151489714Y-89728952D02*
X151537333Y-89681333D01*
X151632571Y-89633714D01*
X151775429Y-89633714D01*
X151870667Y-89681333D01*
X151918286Y-89776571D01*
X151918286Y-90300381D01*
X152823048Y-90300381D02*
X152823048Y-89300381D01*
X152823048Y-90252762D02*
X152727810Y-90300381D01*
X152537333Y-90300381D01*
X152442095Y-90252762D01*
X152394476Y-90205143D01*
X152346857Y-90109905D01*
X152346857Y-89824190D01*
X152394476Y-89728952D01*
X152442095Y-89681333D01*
X152537333Y-89633714D01*
X152727810Y-89633714D01*
X152823048Y-89681333D01*
X150608762Y-85759714D02*
X150846857Y-86426381D01*
X151084953Y-85759714D01*
X151894477Y-86378762D02*
X151799239Y-86426381D01*
X151608762Y-86426381D01*
X151513524Y-86378762D01*
X151465905Y-86331143D01*
X151418286Y-86235905D01*
X151418286Y-85950190D01*
X151465905Y-85854952D01*
X151513524Y-85807333D01*
X151608762Y-85759714D01*
X151799239Y-85759714D01*
X151894477Y-85807333D01*
X152751620Y-86378762D02*
X152656382Y-86426381D01*
X152465905Y-86426381D01*
X152370667Y-86378762D01*
X152323048Y-86331143D01*
X152275429Y-86235905D01*
X152275429Y-85950190D01*
X152323048Y-85854952D01*
X152370667Y-85807333D01*
X152465905Y-85759714D01*
X152656382Y-85759714D01*
X152751620Y-85807333D01*
%LPC*%
D13*
X161038540Y-104648520D03*
D14*
X161038540Y-94488520D03*
D15*
X163068000Y-117348000D03*
X163068000Y-114808000D03*
X163068000Y-112268000D03*
X163068000Y-109728000D03*
X155448000Y-109728000D03*
X155448000Y-112268000D03*
X155448000Y-114808000D03*
X155448000Y-117348000D03*
D16*
X162306000Y-87630000D03*
D17*
X162306000Y-90170000D03*
X159766000Y-87630000D03*
X159766000Y-90170000D03*
X157226000Y-87630000D03*
X157226000Y-90170000D03*
D18*
X147066000Y-107442000D03*
X147066000Y-111252000D03*
X147066000Y-103632000D03*
X147066000Y-96012000D03*
X147066000Y-99822000D03*
X147066000Y-90678000D03*
X147066000Y-86868000D03*
M02*
