G04 #@! TF.FileFunction,Copper,L2,Bot,Signal*
%FSLAX46Y46*%
G04 Gerber Fmt 4.6, Leading zero omitted, Abs format (unit mm)*
G04 Created by KiCad (PCBNEW 4.0.2-1.fc23-product) date Sat 17 Mar 2018 10:09:07 PM EDT*
%MOMM*%
G01*
G04 APERTURE LIST*
%ADD10C,0.100000*%
%ADD11R,1.400000X1.400000*%
%ADD12C,1.400000*%
%ADD13R,1.300000X1.300000*%
%ADD14C,1.300000*%
%ADD15C,1.699260*%
%ADD16R,1.699260X1.699260*%
%ADD17O,1.600000X2.300000*%
%ADD18R,1.727200X1.727200*%
%ADD19O,1.727200X1.727200*%
%ADD20C,0.508000*%
%ADD21C,0.152400*%
%ADD22C,0.254000*%
G04 APERTURE END LIST*
D10*
D11*
X139509500Y-67119500D03*
D12*
X144509500Y-67119500D03*
D13*
X141287500Y-60769500D03*
D14*
X141287500Y-62769500D03*
D15*
X157163020Y-68386960D03*
D16*
X147003020Y-68386960D03*
D17*
X128016000Y-68008500D03*
X130556000Y-68008500D03*
X133096000Y-68008500D03*
X135636000Y-68008500D03*
X135636000Y-60388500D03*
X133096000Y-60388500D03*
X130556000Y-60388500D03*
X128016000Y-60388500D03*
D18*
X160147000Y-62738000D03*
D19*
X162687000Y-62738000D03*
X160147000Y-65278000D03*
X162687000Y-65278000D03*
X160147000Y-67818000D03*
X162687000Y-67818000D03*
D20*
X152717500Y-55689500D03*
X163195000Y-55689500D03*
X159702500Y-55689500D03*
X156210000Y-55689500D03*
X149225000Y-55689500D03*
X145732500Y-55689500D03*
X142240000Y-55689500D03*
D21*
X139509500Y-67119500D02*
X139509500Y-62547500D01*
X139509500Y-62547500D02*
X141287500Y-60769500D01*
X147003020Y-68386960D02*
X140776960Y-68386960D01*
X140776960Y-68386960D02*
X139509500Y-67119500D01*
X162687000Y-62738000D02*
X161417000Y-64008000D01*
X151381980Y-64008000D02*
X147003020Y-68386960D01*
X161417000Y-64008000D02*
X151381980Y-64008000D01*
X128016000Y-68008500D02*
X125349000Y-65341500D01*
X157861000Y-50355500D02*
X163195000Y-55689500D01*
X126047500Y-50355500D02*
X157861000Y-50355500D01*
X125349000Y-51054000D02*
X126047500Y-50355500D01*
X125349000Y-65341500D02*
X125349000Y-51054000D01*
X130556000Y-68008500D02*
X130556000Y-67957698D01*
X130556000Y-67957698D02*
X125653802Y-63055500D01*
X125653802Y-63055500D02*
X125653802Y-51180254D01*
X125653802Y-51180254D02*
X126161056Y-50673000D01*
X126161056Y-50673000D02*
X154686000Y-50673000D01*
X154686000Y-50673000D02*
X159702500Y-55689500D01*
X133096000Y-68008500D02*
X125984000Y-60896500D01*
X151511000Y-50990500D02*
X156210000Y-55689500D01*
X126301500Y-50990500D02*
X151511000Y-50990500D01*
X125984000Y-51308000D02*
X126301500Y-50990500D01*
X125984000Y-60896500D02*
X125984000Y-51308000D01*
X135636000Y-60388500D02*
X136842500Y-59182000D01*
X145732500Y-59182000D02*
X149225000Y-55689500D01*
X136842500Y-59182000D02*
X145732500Y-59182000D01*
X133096000Y-60388500D02*
X134620000Y-58864500D01*
X142557500Y-58864500D02*
X145732500Y-55689500D01*
X134620000Y-58864500D02*
X142557500Y-58864500D01*
X130556000Y-60388500D02*
X132397500Y-58547000D01*
X139382500Y-58547000D02*
X142240000Y-55689500D01*
X132397500Y-58547000D02*
X139382500Y-58547000D01*
D22*
G36*
X164315000Y-69315000D02*
X162814002Y-69315000D01*
X162814002Y-69152470D01*
X163046027Y-69272968D01*
X163575490Y-69024821D01*
X163969688Y-68592947D01*
X164141958Y-68177026D01*
X164020817Y-67945000D01*
X162814000Y-67945000D01*
X162814000Y-67965000D01*
X162560000Y-67965000D01*
X162560000Y-67945000D01*
X162540000Y-67945000D01*
X162540000Y-67691000D01*
X162560000Y-67691000D01*
X162560000Y-67671000D01*
X162814000Y-67671000D01*
X162814000Y-67691000D01*
X164020817Y-67691000D01*
X164141958Y-67458974D01*
X163969688Y-67043053D01*
X163575490Y-66611179D01*
X163452772Y-66553664D01*
X163776029Y-66337670D01*
X164100885Y-65851489D01*
X164214959Y-65278000D01*
X164100885Y-64704511D01*
X163776029Y-64218330D01*
X163461248Y-64008000D01*
X163776029Y-63797670D01*
X164100885Y-63311489D01*
X164214959Y-62738000D01*
X164100885Y-62164511D01*
X163776029Y-61678330D01*
X163289848Y-61353474D01*
X162716359Y-61239400D01*
X162657641Y-61239400D01*
X162084152Y-61353474D01*
X161618558Y-61664574D01*
X161613762Y-61639083D01*
X161474690Y-61422959D01*
X161262490Y-61277969D01*
X161010600Y-61226960D01*
X159283400Y-61226960D01*
X159048083Y-61271238D01*
X158831959Y-61410310D01*
X158686969Y-61622510D01*
X158635960Y-61874400D01*
X158635960Y-63296800D01*
X151381980Y-63296800D01*
X151109816Y-63350937D01*
X150879086Y-63505105D01*
X147494302Y-66889890D01*
X146153390Y-66889890D01*
X145918073Y-66934168D01*
X145839165Y-66984944D01*
X145828164Y-66782060D01*
X145680542Y-66425669D01*
X145444775Y-66363831D01*
X144689105Y-67119500D01*
X144703248Y-67133642D01*
X144523643Y-67313248D01*
X144509500Y-67299105D01*
X144495358Y-67313248D01*
X144315752Y-67133642D01*
X144329895Y-67119500D01*
X143574225Y-66363831D01*
X143338458Y-66425669D01*
X143162081Y-66926622D01*
X143190836Y-67456940D01*
X143281474Y-67675760D01*
X141071548Y-67675760D01*
X140856940Y-67461152D01*
X140856940Y-66419500D01*
X140812670Y-66184225D01*
X143753831Y-66184225D01*
X144509500Y-66939895D01*
X145265169Y-66184225D01*
X145203331Y-65948458D01*
X144702378Y-65772081D01*
X144172060Y-65800836D01*
X143815669Y-65948458D01*
X143753831Y-66184225D01*
X140812670Y-66184225D01*
X140812662Y-66184183D01*
X140673590Y-65968059D01*
X140461390Y-65823069D01*
X140220700Y-65774328D01*
X140220700Y-63668516D01*
X140568090Y-63668516D01*
X140623771Y-63899111D01*
X141106578Y-64067122D01*
X141616928Y-64037583D01*
X141951229Y-63899111D01*
X142006910Y-63668516D01*
X141287500Y-62949105D01*
X140568090Y-63668516D01*
X140220700Y-63668516D01*
X140220700Y-63448396D01*
X140388484Y-63488910D01*
X141107895Y-62769500D01*
X141093752Y-62755358D01*
X141273358Y-62575752D01*
X141287500Y-62589895D01*
X141301642Y-62575752D01*
X141481248Y-62755358D01*
X141467105Y-62769500D01*
X142186516Y-63488910D01*
X142417111Y-63433229D01*
X142585122Y-62950422D01*
X142555583Y-62440072D01*
X142417111Y-62105771D01*
X142186518Y-62050090D01*
X142288180Y-61948428D01*
X142388941Y-61883590D01*
X142533931Y-61671390D01*
X142584940Y-61419500D01*
X142584940Y-60119500D01*
X142542359Y-59893200D01*
X145732500Y-59893200D01*
X146004665Y-59839063D01*
X146235394Y-59684894D01*
X149341686Y-56578602D01*
X149401057Y-56578654D01*
X149727920Y-56443597D01*
X149978218Y-56193736D01*
X150113846Y-55867109D01*
X150114154Y-55513443D01*
X149979097Y-55186580D01*
X149729236Y-54936282D01*
X149402609Y-54800654D01*
X149048943Y-54800346D01*
X148722080Y-54935403D01*
X148471782Y-55185264D01*
X148336154Y-55511891D01*
X148336101Y-55572611D01*
X145437912Y-58470800D01*
X143956988Y-58470800D01*
X145849186Y-56578602D01*
X145908557Y-56578654D01*
X146235420Y-56443597D01*
X146485718Y-56193736D01*
X146621346Y-55867109D01*
X146621654Y-55513443D01*
X146486597Y-55186580D01*
X146236736Y-54936282D01*
X145910109Y-54800654D01*
X145556443Y-54800346D01*
X145229580Y-54935403D01*
X144979282Y-55185264D01*
X144843654Y-55511891D01*
X144843601Y-55572611D01*
X142262912Y-58153300D01*
X140781988Y-58153300D01*
X142356687Y-56578602D01*
X142416057Y-56578654D01*
X142742920Y-56443597D01*
X142993218Y-56193736D01*
X143128846Y-55867109D01*
X143129154Y-55513443D01*
X142994097Y-55186580D01*
X142744236Y-54936282D01*
X142417609Y-54800654D01*
X142063943Y-54800346D01*
X141737080Y-54935403D01*
X141486782Y-55185264D01*
X141351154Y-55511891D01*
X141351101Y-55572610D01*
X139087912Y-57835800D01*
X132397500Y-57835800D01*
X132170490Y-57880955D01*
X132125335Y-57889937D01*
X131894605Y-58044106D01*
X131198545Y-58740167D01*
X131105151Y-58677763D01*
X130556000Y-58568530D01*
X130006849Y-58677763D01*
X129541302Y-58988832D01*
X129286000Y-59370918D01*
X129030698Y-58988832D01*
X128565151Y-58677763D01*
X128016000Y-58568530D01*
X127466849Y-58677763D01*
X127001302Y-58988832D01*
X126695200Y-59446945D01*
X126695200Y-51701700D01*
X151216412Y-51701700D01*
X155320898Y-55806187D01*
X155320846Y-55865557D01*
X155455903Y-56192420D01*
X155705764Y-56442718D01*
X156032391Y-56578346D01*
X156386057Y-56578654D01*
X156712920Y-56443597D01*
X156963218Y-56193736D01*
X157098846Y-55867109D01*
X157099154Y-55513443D01*
X156964097Y-55186580D01*
X156714236Y-54936282D01*
X156387609Y-54800654D01*
X156326890Y-54800601D01*
X152910488Y-51384200D01*
X154391412Y-51384200D01*
X158813398Y-55806187D01*
X158813346Y-55865557D01*
X158948403Y-56192420D01*
X159198264Y-56442718D01*
X159524891Y-56578346D01*
X159878557Y-56578654D01*
X160205420Y-56443597D01*
X160455718Y-56193736D01*
X160591346Y-55867109D01*
X160591654Y-55513443D01*
X160456597Y-55186580D01*
X160206736Y-54936282D01*
X159880109Y-54800654D01*
X159819390Y-54800601D01*
X156085488Y-51066700D01*
X157566412Y-51066700D01*
X162305898Y-55806186D01*
X162305846Y-55865557D01*
X162440903Y-56192420D01*
X162690764Y-56442718D01*
X163017391Y-56578346D01*
X163371057Y-56578654D01*
X163697920Y-56443597D01*
X163948218Y-56193736D01*
X164083846Y-55867109D01*
X164084154Y-55513443D01*
X163949097Y-55186580D01*
X163699236Y-54936282D01*
X163372609Y-54800654D01*
X163311889Y-54800601D01*
X159196288Y-50685000D01*
X164315000Y-50685000D01*
X164315000Y-69315000D01*
X164315000Y-69315000D01*
G37*
X164315000Y-69315000D02*
X162814002Y-69315000D01*
X162814002Y-69152470D01*
X163046027Y-69272968D01*
X163575490Y-69024821D01*
X163969688Y-68592947D01*
X164141958Y-68177026D01*
X164020817Y-67945000D01*
X162814000Y-67945000D01*
X162814000Y-67965000D01*
X162560000Y-67965000D01*
X162560000Y-67945000D01*
X162540000Y-67945000D01*
X162540000Y-67691000D01*
X162560000Y-67691000D01*
X162560000Y-67671000D01*
X162814000Y-67671000D01*
X162814000Y-67691000D01*
X164020817Y-67691000D01*
X164141958Y-67458974D01*
X163969688Y-67043053D01*
X163575490Y-66611179D01*
X163452772Y-66553664D01*
X163776029Y-66337670D01*
X164100885Y-65851489D01*
X164214959Y-65278000D01*
X164100885Y-64704511D01*
X163776029Y-64218330D01*
X163461248Y-64008000D01*
X163776029Y-63797670D01*
X164100885Y-63311489D01*
X164214959Y-62738000D01*
X164100885Y-62164511D01*
X163776029Y-61678330D01*
X163289848Y-61353474D01*
X162716359Y-61239400D01*
X162657641Y-61239400D01*
X162084152Y-61353474D01*
X161618558Y-61664574D01*
X161613762Y-61639083D01*
X161474690Y-61422959D01*
X161262490Y-61277969D01*
X161010600Y-61226960D01*
X159283400Y-61226960D01*
X159048083Y-61271238D01*
X158831959Y-61410310D01*
X158686969Y-61622510D01*
X158635960Y-61874400D01*
X158635960Y-63296800D01*
X151381980Y-63296800D01*
X151109816Y-63350937D01*
X150879086Y-63505105D01*
X147494302Y-66889890D01*
X146153390Y-66889890D01*
X145918073Y-66934168D01*
X145839165Y-66984944D01*
X145828164Y-66782060D01*
X145680542Y-66425669D01*
X145444775Y-66363831D01*
X144689105Y-67119500D01*
X144703248Y-67133642D01*
X144523643Y-67313248D01*
X144509500Y-67299105D01*
X144495358Y-67313248D01*
X144315752Y-67133642D01*
X144329895Y-67119500D01*
X143574225Y-66363831D01*
X143338458Y-66425669D01*
X143162081Y-66926622D01*
X143190836Y-67456940D01*
X143281474Y-67675760D01*
X141071548Y-67675760D01*
X140856940Y-67461152D01*
X140856940Y-66419500D01*
X140812670Y-66184225D01*
X143753831Y-66184225D01*
X144509500Y-66939895D01*
X145265169Y-66184225D01*
X145203331Y-65948458D01*
X144702378Y-65772081D01*
X144172060Y-65800836D01*
X143815669Y-65948458D01*
X143753831Y-66184225D01*
X140812670Y-66184225D01*
X140812662Y-66184183D01*
X140673590Y-65968059D01*
X140461390Y-65823069D01*
X140220700Y-65774328D01*
X140220700Y-63668516D01*
X140568090Y-63668516D01*
X140623771Y-63899111D01*
X141106578Y-64067122D01*
X141616928Y-64037583D01*
X141951229Y-63899111D01*
X142006910Y-63668516D01*
X141287500Y-62949105D01*
X140568090Y-63668516D01*
X140220700Y-63668516D01*
X140220700Y-63448396D01*
X140388484Y-63488910D01*
X141107895Y-62769500D01*
X141093752Y-62755358D01*
X141273358Y-62575752D01*
X141287500Y-62589895D01*
X141301642Y-62575752D01*
X141481248Y-62755358D01*
X141467105Y-62769500D01*
X142186516Y-63488910D01*
X142417111Y-63433229D01*
X142585122Y-62950422D01*
X142555583Y-62440072D01*
X142417111Y-62105771D01*
X142186518Y-62050090D01*
X142288180Y-61948428D01*
X142388941Y-61883590D01*
X142533931Y-61671390D01*
X142584940Y-61419500D01*
X142584940Y-60119500D01*
X142542359Y-59893200D01*
X145732500Y-59893200D01*
X146004665Y-59839063D01*
X146235394Y-59684894D01*
X149341686Y-56578602D01*
X149401057Y-56578654D01*
X149727920Y-56443597D01*
X149978218Y-56193736D01*
X150113846Y-55867109D01*
X150114154Y-55513443D01*
X149979097Y-55186580D01*
X149729236Y-54936282D01*
X149402609Y-54800654D01*
X149048943Y-54800346D01*
X148722080Y-54935403D01*
X148471782Y-55185264D01*
X148336154Y-55511891D01*
X148336101Y-55572611D01*
X145437912Y-58470800D01*
X143956988Y-58470800D01*
X145849186Y-56578602D01*
X145908557Y-56578654D01*
X146235420Y-56443597D01*
X146485718Y-56193736D01*
X146621346Y-55867109D01*
X146621654Y-55513443D01*
X146486597Y-55186580D01*
X146236736Y-54936282D01*
X145910109Y-54800654D01*
X145556443Y-54800346D01*
X145229580Y-54935403D01*
X144979282Y-55185264D01*
X144843654Y-55511891D01*
X144843601Y-55572611D01*
X142262912Y-58153300D01*
X140781988Y-58153300D01*
X142356687Y-56578602D01*
X142416057Y-56578654D01*
X142742920Y-56443597D01*
X142993218Y-56193736D01*
X143128846Y-55867109D01*
X143129154Y-55513443D01*
X142994097Y-55186580D01*
X142744236Y-54936282D01*
X142417609Y-54800654D01*
X142063943Y-54800346D01*
X141737080Y-54935403D01*
X141486782Y-55185264D01*
X141351154Y-55511891D01*
X141351101Y-55572610D01*
X139087912Y-57835800D01*
X132397500Y-57835800D01*
X132170490Y-57880955D01*
X132125335Y-57889937D01*
X131894605Y-58044106D01*
X131198545Y-58740167D01*
X131105151Y-58677763D01*
X130556000Y-58568530D01*
X130006849Y-58677763D01*
X129541302Y-58988832D01*
X129286000Y-59370918D01*
X129030698Y-58988832D01*
X128565151Y-58677763D01*
X128016000Y-58568530D01*
X127466849Y-58677763D01*
X127001302Y-58988832D01*
X126695200Y-59446945D01*
X126695200Y-51701700D01*
X151216412Y-51701700D01*
X155320898Y-55806187D01*
X155320846Y-55865557D01*
X155455903Y-56192420D01*
X155705764Y-56442718D01*
X156032391Y-56578346D01*
X156386057Y-56578654D01*
X156712920Y-56443597D01*
X156963218Y-56193736D01*
X157098846Y-55867109D01*
X157099154Y-55513443D01*
X156964097Y-55186580D01*
X156714236Y-54936282D01*
X156387609Y-54800654D01*
X156326890Y-54800601D01*
X152910488Y-51384200D01*
X154391412Y-51384200D01*
X158813398Y-55806187D01*
X158813346Y-55865557D01*
X158948403Y-56192420D01*
X159198264Y-56442718D01*
X159524891Y-56578346D01*
X159878557Y-56578654D01*
X160205420Y-56443597D01*
X160455718Y-56193736D01*
X160591346Y-55867109D01*
X160591654Y-55513443D01*
X160456597Y-55186580D01*
X160206736Y-54936282D01*
X159880109Y-54800654D01*
X159819390Y-54800601D01*
X156085488Y-51066700D01*
X157566412Y-51066700D01*
X162305898Y-55806186D01*
X162305846Y-55865557D01*
X162440903Y-56192420D01*
X162690764Y-56442718D01*
X163017391Y-56578346D01*
X163371057Y-56578654D01*
X163697920Y-56443597D01*
X163948218Y-56193736D01*
X164083846Y-55867109D01*
X164084154Y-55513443D01*
X163949097Y-55186580D01*
X163699236Y-54936282D01*
X163372609Y-54800654D01*
X163311889Y-54800601D01*
X159196288Y-50685000D01*
X164315000Y-50685000D01*
X164315000Y-69315000D01*
G36*
X139990060Y-60119500D02*
X139990060Y-61061151D01*
X139006606Y-62044606D01*
X138852437Y-62275335D01*
X138819669Y-62440072D01*
X138798300Y-62547500D01*
X138798300Y-65774167D01*
X138574183Y-65816338D01*
X138358059Y-65955410D01*
X138213069Y-66167610D01*
X138162060Y-66419500D01*
X138162060Y-67819500D01*
X138206338Y-68054817D01*
X138345410Y-68270941D01*
X138557610Y-68415931D01*
X138809500Y-68466940D01*
X139851152Y-68466940D01*
X140274066Y-68889854D01*
X140504795Y-69044023D01*
X140549950Y-69053005D01*
X140776960Y-69098160D01*
X145505950Y-69098160D01*
X145505950Y-69236590D01*
X145520704Y-69315000D01*
X136679923Y-69315000D01*
X136913166Y-69024983D01*
X137071000Y-68485500D01*
X137071000Y-68135500D01*
X135763000Y-68135500D01*
X135763000Y-68155500D01*
X135509000Y-68155500D01*
X135509000Y-68135500D01*
X135489000Y-68135500D01*
X135489000Y-67881500D01*
X135509000Y-67881500D01*
X135509000Y-66388585D01*
X135763000Y-66388585D01*
X135763000Y-67881500D01*
X137071000Y-67881500D01*
X137071000Y-67531500D01*
X136913166Y-66992017D01*
X136560896Y-66554000D01*
X136067819Y-66284133D01*
X135985039Y-66266596D01*
X135763000Y-66388585D01*
X135509000Y-66388585D01*
X135286961Y-66266596D01*
X135204181Y-66284133D01*
X134711104Y-66554000D01*
X134363149Y-66986651D01*
X134110698Y-66608832D01*
X133645151Y-66297763D01*
X133096000Y-66188530D01*
X132546849Y-66297763D01*
X132453455Y-66360167D01*
X128254348Y-62161060D01*
X128565151Y-62099237D01*
X129030698Y-61788168D01*
X129286000Y-61406082D01*
X129541302Y-61788168D01*
X130006849Y-62099237D01*
X130556000Y-62208470D01*
X131105151Y-62099237D01*
X131570698Y-61788168D01*
X131826000Y-61406082D01*
X132081302Y-61788168D01*
X132546849Y-62099237D01*
X133096000Y-62208470D01*
X133645151Y-62099237D01*
X134110698Y-61788168D01*
X134366000Y-61406082D01*
X134621302Y-61788168D01*
X135086849Y-62099237D01*
X135636000Y-62208470D01*
X136185151Y-62099237D01*
X136650698Y-61788168D01*
X136961767Y-61322621D01*
X137071000Y-60773470D01*
X137071000Y-60003530D01*
X137063660Y-59966629D01*
X137137089Y-59893200D01*
X140035887Y-59893200D01*
X139990060Y-60119500D01*
X139990060Y-60119500D01*
G37*
X139990060Y-60119500D02*
X139990060Y-61061151D01*
X139006606Y-62044606D01*
X138852437Y-62275335D01*
X138819669Y-62440072D01*
X138798300Y-62547500D01*
X138798300Y-65774167D01*
X138574183Y-65816338D01*
X138358059Y-65955410D01*
X138213069Y-66167610D01*
X138162060Y-66419500D01*
X138162060Y-67819500D01*
X138206338Y-68054817D01*
X138345410Y-68270941D01*
X138557610Y-68415931D01*
X138809500Y-68466940D01*
X139851152Y-68466940D01*
X140274066Y-68889854D01*
X140504795Y-69044023D01*
X140549950Y-69053005D01*
X140776960Y-69098160D01*
X145505950Y-69098160D01*
X145505950Y-69236590D01*
X145520704Y-69315000D01*
X136679923Y-69315000D01*
X136913166Y-69024983D01*
X137071000Y-68485500D01*
X137071000Y-68135500D01*
X135763000Y-68135500D01*
X135763000Y-68155500D01*
X135509000Y-68155500D01*
X135509000Y-68135500D01*
X135489000Y-68135500D01*
X135489000Y-67881500D01*
X135509000Y-67881500D01*
X135509000Y-66388585D01*
X135763000Y-66388585D01*
X135763000Y-67881500D01*
X137071000Y-67881500D01*
X137071000Y-67531500D01*
X136913166Y-66992017D01*
X136560896Y-66554000D01*
X136067819Y-66284133D01*
X135985039Y-66266596D01*
X135763000Y-66388585D01*
X135509000Y-66388585D01*
X135286961Y-66266596D01*
X135204181Y-66284133D01*
X134711104Y-66554000D01*
X134363149Y-66986651D01*
X134110698Y-66608832D01*
X133645151Y-66297763D01*
X133096000Y-66188530D01*
X132546849Y-66297763D01*
X132453455Y-66360167D01*
X128254348Y-62161060D01*
X128565151Y-62099237D01*
X129030698Y-61788168D01*
X129286000Y-61406082D01*
X129541302Y-61788168D01*
X130006849Y-62099237D01*
X130556000Y-62208470D01*
X131105151Y-62099237D01*
X131570698Y-61788168D01*
X131826000Y-61406082D01*
X132081302Y-61788168D01*
X132546849Y-62099237D01*
X133096000Y-62208470D01*
X133645151Y-62099237D01*
X134110698Y-61788168D01*
X134366000Y-61406082D01*
X134621302Y-61788168D01*
X135086849Y-62099237D01*
X135636000Y-62208470D01*
X136185151Y-62099237D01*
X136650698Y-61788168D01*
X136961767Y-61322621D01*
X137071000Y-60773470D01*
X137071000Y-60003530D01*
X137063660Y-59966629D01*
X137137089Y-59893200D01*
X140035887Y-59893200D01*
X139990060Y-60119500D01*
M02*
