M48
;DRILL file {KiCad 4.0.2-1.fc23-product} date Thu 02 Nov 2017 11:38:35 PM EDT
;FORMAT={2:4/ absolute / inch / suppress trailing zeros}
FMAT,2
INCH,LZ
T1C0.013
T2C0.028
T3C0.031
T4C0.040
%
G90
G05
M72
T1
X0594Y-0342
X0594Y-039
X0596Y-0415
X0606Y-0355
X0606Y-0361
X0623Y-0448
T2
X063401Y-0372
X063401Y-0412
T3
X0612Y-0432
X0612Y-0442
X0612Y-0452
X0612Y-0462
X0642Y-0432
X0642Y-0442
X0642Y-0452
X0642Y-0462
T4
X0619Y-0345
X0619Y-0355
X0629Y-0345
X0629Y-0355
X0639Y-0345
X0639Y-0355
T0
M30
