G04 #@! TF.FileFunction,Copper,L1,Top,Signal*
%FSLAX46Y46*%
G04 Gerber Fmt 4.6, Leading zero omitted, Abs format (unit mm)*
G04 Created by KiCad (PCBNEW 4.0.2-1.fc23-product) date Sat 17 Mar 2018 10:09:07 PM EDT*
%MOMM*%
G01*
G04 APERTURE LIST*
%ADD10C,0.100000*%
%ADD11R,2.500000X5.000000*%
%ADD12R,1.400000X1.400000*%
%ADD13C,1.400000*%
%ADD14R,1.300000X1.300000*%
%ADD15C,1.300000*%
%ADD16C,1.699260*%
%ADD17R,1.699260X1.699260*%
%ADD18O,1.600000X2.300000*%
%ADD19R,1.727200X1.727200*%
%ADD20O,1.727200X1.727200*%
%ADD21C,0.508000*%
%ADD22C,0.152400*%
%ADD23C,0.254000*%
G04 APERTURE END LIST*
D10*
D11*
X156210000Y-52895500D03*
X159702500Y-52895500D03*
D12*
X139509500Y-67119500D03*
D13*
X144509500Y-67119500D03*
D14*
X141287500Y-60769500D03*
D15*
X141287500Y-62769500D03*
D16*
X157163020Y-68386960D03*
D17*
X147003020Y-68386960D03*
D18*
X128016000Y-68008500D03*
X130556000Y-68008500D03*
X133096000Y-68008500D03*
X135636000Y-68008500D03*
X135636000Y-60388500D03*
X133096000Y-60388500D03*
X130556000Y-60388500D03*
X128016000Y-60388500D03*
D19*
X160147000Y-62738000D03*
D20*
X162687000Y-62738000D03*
X160147000Y-65278000D03*
X162687000Y-65278000D03*
X160147000Y-67818000D03*
X162687000Y-67818000D03*
D11*
X163195000Y-52895500D03*
X152717500Y-52895500D03*
X149225000Y-52895500D03*
X145732500Y-52895500D03*
X142240000Y-52895500D03*
X138747500Y-52895500D03*
D21*
X152717500Y-55689500D03*
X163195000Y-55689500D03*
X159702500Y-55689500D03*
X156210000Y-55689500D03*
X149225000Y-55689500D03*
X145732500Y-55689500D03*
X142240000Y-55689500D03*
D22*
X141287500Y-60769500D02*
X139509500Y-62547500D01*
X130175000Y-62547500D02*
X128016000Y-60388500D01*
X139509500Y-62547500D02*
X130175000Y-62547500D01*
X152717500Y-52895500D02*
X152717500Y-55689500D01*
X157163020Y-68386960D02*
X151444960Y-68386960D01*
X138747500Y-55689500D02*
X138747500Y-52895500D01*
X151444960Y-68386960D02*
X138747500Y-55689500D01*
X160147000Y-67818000D02*
X161417000Y-69088000D01*
X163957000Y-56451500D02*
X163195000Y-55689500D01*
X163957000Y-68326000D02*
X163957000Y-56451500D01*
X163195000Y-69088000D02*
X163957000Y-68326000D01*
X161417000Y-69088000D02*
X163195000Y-69088000D01*
X163195000Y-55689500D02*
X163195000Y-52895500D01*
X159702500Y-55689500D02*
X159702500Y-52895500D01*
X156210000Y-55689500D02*
X156210000Y-52895500D01*
X162687000Y-65278000D02*
X161417000Y-64008000D01*
X155003500Y-61468000D02*
X149225000Y-55689500D01*
X161226500Y-61468000D02*
X155003500Y-61468000D01*
X161417000Y-61658500D02*
X161226500Y-61468000D01*
X161417000Y-64008000D02*
X161417000Y-61658500D01*
X149225000Y-55689500D02*
X149225000Y-52895500D01*
X160147000Y-62738000D02*
X152781000Y-62738000D01*
X152781000Y-62738000D02*
X145732500Y-55689500D01*
X145732500Y-55689500D02*
X145732500Y-52895500D01*
X160147000Y-65278000D02*
X151828500Y-65278000D01*
X151828500Y-65278000D02*
X142240000Y-55689500D01*
X142240000Y-55689500D02*
X142240000Y-52895500D01*
D23*
G36*
X136850060Y-55395500D02*
X136894338Y-55630817D01*
X137033410Y-55846941D01*
X137245610Y-55991931D01*
X137497500Y-56042940D01*
X138144744Y-56042940D01*
X138244606Y-56192394D01*
X141524272Y-59472060D01*
X140637500Y-59472060D01*
X140402183Y-59516338D01*
X140186059Y-59655410D01*
X140041069Y-59867610D01*
X139990060Y-60119500D01*
X139990060Y-61061151D01*
X139214912Y-61836300D01*
X136578663Y-61836300D01*
X136650698Y-61788168D01*
X136961767Y-61322621D01*
X137071000Y-60773470D01*
X137071000Y-60003530D01*
X136961767Y-59454379D01*
X136650698Y-58988832D01*
X136185151Y-58677763D01*
X135636000Y-58568530D01*
X135086849Y-58677763D01*
X134621302Y-58988832D01*
X134366000Y-59370918D01*
X134110698Y-58988832D01*
X133645151Y-58677763D01*
X133096000Y-58568530D01*
X132546849Y-58677763D01*
X132081302Y-58988832D01*
X131826000Y-59370918D01*
X131570698Y-58988832D01*
X131105151Y-58677763D01*
X130556000Y-58568530D01*
X130006849Y-58677763D01*
X129541302Y-58988832D01*
X129286000Y-59370918D01*
X129030698Y-58988832D01*
X128565151Y-58677763D01*
X128016000Y-58568530D01*
X127466849Y-58677763D01*
X127001302Y-58988832D01*
X126690233Y-59454379D01*
X126581000Y-60003530D01*
X126581000Y-60773470D01*
X126690233Y-61322621D01*
X127001302Y-61788168D01*
X127466849Y-62099237D01*
X128016000Y-62208470D01*
X128565151Y-62099237D01*
X128658545Y-62036833D01*
X129672106Y-63050394D01*
X129902835Y-63204563D01*
X129947990Y-63213545D01*
X130175000Y-63258700D01*
X139509500Y-63258700D01*
X139781665Y-63204563D01*
X140012394Y-63050394D01*
X140016377Y-63046411D01*
X140019417Y-63098928D01*
X140157889Y-63433229D01*
X140388484Y-63488910D01*
X141107895Y-62769500D01*
X141093752Y-62755358D01*
X141273358Y-62575752D01*
X141287500Y-62589895D01*
X141301642Y-62575752D01*
X141481248Y-62755358D01*
X141467105Y-62769500D01*
X142186516Y-63488910D01*
X142417111Y-63433229D01*
X142585122Y-62950422D01*
X142555583Y-62440072D01*
X142417111Y-62105771D01*
X142186518Y-62050090D01*
X142288180Y-61948428D01*
X142388941Y-61883590D01*
X142533931Y-61671390D01*
X142584940Y-61419500D01*
X142584940Y-60532728D01*
X150942066Y-68889854D01*
X151172795Y-69044023D01*
X151217950Y-69053005D01*
X151444960Y-69098160D01*
X155850510Y-69098160D01*
X155903678Y-69226837D01*
X155991687Y-69315000D01*
X148484212Y-69315000D01*
X148500090Y-69236590D01*
X148500090Y-67537330D01*
X148455812Y-67302013D01*
X148316740Y-67085889D01*
X148104540Y-66940899D01*
X147852650Y-66889890D01*
X146153390Y-66889890D01*
X145918073Y-66934168D01*
X145839165Y-66984944D01*
X145828164Y-66782060D01*
X145680542Y-66425669D01*
X145444775Y-66363831D01*
X144689105Y-67119500D01*
X145444775Y-67875169D01*
X145505950Y-67859124D01*
X145505950Y-69236590D01*
X145520704Y-69315000D01*
X136679923Y-69315000D01*
X136913166Y-69024983D01*
X137071000Y-68485500D01*
X137071000Y-68135500D01*
X135763000Y-68135500D01*
X135763000Y-68155500D01*
X135509000Y-68155500D01*
X135509000Y-68135500D01*
X135489000Y-68135500D01*
X135489000Y-67881500D01*
X135509000Y-67881500D01*
X135509000Y-66388585D01*
X135763000Y-66388585D01*
X135763000Y-67881500D01*
X137071000Y-67881500D01*
X137071000Y-67531500D01*
X136913166Y-66992017D01*
X136560896Y-66554000D01*
X136315150Y-66419500D01*
X138162060Y-66419500D01*
X138162060Y-67819500D01*
X138206338Y-68054817D01*
X138345410Y-68270941D01*
X138557610Y-68415931D01*
X138809500Y-68466940D01*
X140209500Y-68466940D01*
X140444817Y-68422662D01*
X140660941Y-68283590D01*
X140805931Y-68071390D01*
X140809295Y-68054775D01*
X143753831Y-68054775D01*
X143815669Y-68290542D01*
X144316622Y-68466919D01*
X144846940Y-68438164D01*
X145203331Y-68290542D01*
X145265169Y-68054775D01*
X144509500Y-67299105D01*
X143753831Y-68054775D01*
X140809295Y-68054775D01*
X140856940Y-67819500D01*
X140856940Y-66926622D01*
X143162081Y-66926622D01*
X143190836Y-67456940D01*
X143338458Y-67813331D01*
X143574225Y-67875169D01*
X144329895Y-67119500D01*
X143574225Y-66363831D01*
X143338458Y-66425669D01*
X143162081Y-66926622D01*
X140856940Y-66926622D01*
X140856940Y-66419500D01*
X140812670Y-66184225D01*
X143753831Y-66184225D01*
X144509500Y-66939895D01*
X145265169Y-66184225D01*
X145203331Y-65948458D01*
X144702378Y-65772081D01*
X144172060Y-65800836D01*
X143815669Y-65948458D01*
X143753831Y-66184225D01*
X140812670Y-66184225D01*
X140812662Y-66184183D01*
X140673590Y-65968059D01*
X140461390Y-65823069D01*
X140209500Y-65772060D01*
X138809500Y-65772060D01*
X138574183Y-65816338D01*
X138358059Y-65955410D01*
X138213069Y-66167610D01*
X138162060Y-66419500D01*
X136315150Y-66419500D01*
X136067819Y-66284133D01*
X135985039Y-66266596D01*
X135763000Y-66388585D01*
X135509000Y-66388585D01*
X135286961Y-66266596D01*
X135204181Y-66284133D01*
X134711104Y-66554000D01*
X134363149Y-66986651D01*
X134110698Y-66608832D01*
X133645151Y-66297763D01*
X133096000Y-66188530D01*
X132546849Y-66297763D01*
X132081302Y-66608832D01*
X131826000Y-66990918D01*
X131570698Y-66608832D01*
X131105151Y-66297763D01*
X130556000Y-66188530D01*
X130006849Y-66297763D01*
X129541302Y-66608832D01*
X129286000Y-66990918D01*
X129030698Y-66608832D01*
X128565151Y-66297763D01*
X128016000Y-66188530D01*
X127466849Y-66297763D01*
X127001302Y-66608832D01*
X126690233Y-67074379D01*
X126581000Y-67623530D01*
X126581000Y-68393470D01*
X126690233Y-68942621D01*
X126939049Y-69315000D01*
X125685000Y-69315000D01*
X125685000Y-63668516D01*
X140568090Y-63668516D01*
X140623771Y-63899111D01*
X141106578Y-64067122D01*
X141616928Y-64037583D01*
X141951229Y-63899111D01*
X142006910Y-63668516D01*
X141287500Y-62949105D01*
X140568090Y-63668516D01*
X125685000Y-63668516D01*
X125685000Y-50685000D01*
X136850060Y-50685000D01*
X136850060Y-55395500D01*
X136850060Y-55395500D01*
G37*
X136850060Y-55395500D02*
X136894338Y-55630817D01*
X137033410Y-55846941D01*
X137245610Y-55991931D01*
X137497500Y-56042940D01*
X138144744Y-56042940D01*
X138244606Y-56192394D01*
X141524272Y-59472060D01*
X140637500Y-59472060D01*
X140402183Y-59516338D01*
X140186059Y-59655410D01*
X140041069Y-59867610D01*
X139990060Y-60119500D01*
X139990060Y-61061151D01*
X139214912Y-61836300D01*
X136578663Y-61836300D01*
X136650698Y-61788168D01*
X136961767Y-61322621D01*
X137071000Y-60773470D01*
X137071000Y-60003530D01*
X136961767Y-59454379D01*
X136650698Y-58988832D01*
X136185151Y-58677763D01*
X135636000Y-58568530D01*
X135086849Y-58677763D01*
X134621302Y-58988832D01*
X134366000Y-59370918D01*
X134110698Y-58988832D01*
X133645151Y-58677763D01*
X133096000Y-58568530D01*
X132546849Y-58677763D01*
X132081302Y-58988832D01*
X131826000Y-59370918D01*
X131570698Y-58988832D01*
X131105151Y-58677763D01*
X130556000Y-58568530D01*
X130006849Y-58677763D01*
X129541302Y-58988832D01*
X129286000Y-59370918D01*
X129030698Y-58988832D01*
X128565151Y-58677763D01*
X128016000Y-58568530D01*
X127466849Y-58677763D01*
X127001302Y-58988832D01*
X126690233Y-59454379D01*
X126581000Y-60003530D01*
X126581000Y-60773470D01*
X126690233Y-61322621D01*
X127001302Y-61788168D01*
X127466849Y-62099237D01*
X128016000Y-62208470D01*
X128565151Y-62099237D01*
X128658545Y-62036833D01*
X129672106Y-63050394D01*
X129902835Y-63204563D01*
X129947990Y-63213545D01*
X130175000Y-63258700D01*
X139509500Y-63258700D01*
X139781665Y-63204563D01*
X140012394Y-63050394D01*
X140016377Y-63046411D01*
X140019417Y-63098928D01*
X140157889Y-63433229D01*
X140388484Y-63488910D01*
X141107895Y-62769500D01*
X141093752Y-62755358D01*
X141273358Y-62575752D01*
X141287500Y-62589895D01*
X141301642Y-62575752D01*
X141481248Y-62755358D01*
X141467105Y-62769500D01*
X142186516Y-63488910D01*
X142417111Y-63433229D01*
X142585122Y-62950422D01*
X142555583Y-62440072D01*
X142417111Y-62105771D01*
X142186518Y-62050090D01*
X142288180Y-61948428D01*
X142388941Y-61883590D01*
X142533931Y-61671390D01*
X142584940Y-61419500D01*
X142584940Y-60532728D01*
X150942066Y-68889854D01*
X151172795Y-69044023D01*
X151217950Y-69053005D01*
X151444960Y-69098160D01*
X155850510Y-69098160D01*
X155903678Y-69226837D01*
X155991687Y-69315000D01*
X148484212Y-69315000D01*
X148500090Y-69236590D01*
X148500090Y-67537330D01*
X148455812Y-67302013D01*
X148316740Y-67085889D01*
X148104540Y-66940899D01*
X147852650Y-66889890D01*
X146153390Y-66889890D01*
X145918073Y-66934168D01*
X145839165Y-66984944D01*
X145828164Y-66782060D01*
X145680542Y-66425669D01*
X145444775Y-66363831D01*
X144689105Y-67119500D01*
X145444775Y-67875169D01*
X145505950Y-67859124D01*
X145505950Y-69236590D01*
X145520704Y-69315000D01*
X136679923Y-69315000D01*
X136913166Y-69024983D01*
X137071000Y-68485500D01*
X137071000Y-68135500D01*
X135763000Y-68135500D01*
X135763000Y-68155500D01*
X135509000Y-68155500D01*
X135509000Y-68135500D01*
X135489000Y-68135500D01*
X135489000Y-67881500D01*
X135509000Y-67881500D01*
X135509000Y-66388585D01*
X135763000Y-66388585D01*
X135763000Y-67881500D01*
X137071000Y-67881500D01*
X137071000Y-67531500D01*
X136913166Y-66992017D01*
X136560896Y-66554000D01*
X136315150Y-66419500D01*
X138162060Y-66419500D01*
X138162060Y-67819500D01*
X138206338Y-68054817D01*
X138345410Y-68270941D01*
X138557610Y-68415931D01*
X138809500Y-68466940D01*
X140209500Y-68466940D01*
X140444817Y-68422662D01*
X140660941Y-68283590D01*
X140805931Y-68071390D01*
X140809295Y-68054775D01*
X143753831Y-68054775D01*
X143815669Y-68290542D01*
X144316622Y-68466919D01*
X144846940Y-68438164D01*
X145203331Y-68290542D01*
X145265169Y-68054775D01*
X144509500Y-67299105D01*
X143753831Y-68054775D01*
X140809295Y-68054775D01*
X140856940Y-67819500D01*
X140856940Y-66926622D01*
X143162081Y-66926622D01*
X143190836Y-67456940D01*
X143338458Y-67813331D01*
X143574225Y-67875169D01*
X144329895Y-67119500D01*
X143574225Y-66363831D01*
X143338458Y-66425669D01*
X143162081Y-66926622D01*
X140856940Y-66926622D01*
X140856940Y-66419500D01*
X140812670Y-66184225D01*
X143753831Y-66184225D01*
X144509500Y-66939895D01*
X145265169Y-66184225D01*
X145203331Y-65948458D01*
X144702378Y-65772081D01*
X144172060Y-65800836D01*
X143815669Y-65948458D01*
X143753831Y-66184225D01*
X140812670Y-66184225D01*
X140812662Y-66184183D01*
X140673590Y-65968059D01*
X140461390Y-65823069D01*
X140209500Y-65772060D01*
X138809500Y-65772060D01*
X138574183Y-65816338D01*
X138358059Y-65955410D01*
X138213069Y-66167610D01*
X138162060Y-66419500D01*
X136315150Y-66419500D01*
X136067819Y-66284133D01*
X135985039Y-66266596D01*
X135763000Y-66388585D01*
X135509000Y-66388585D01*
X135286961Y-66266596D01*
X135204181Y-66284133D01*
X134711104Y-66554000D01*
X134363149Y-66986651D01*
X134110698Y-66608832D01*
X133645151Y-66297763D01*
X133096000Y-66188530D01*
X132546849Y-66297763D01*
X132081302Y-66608832D01*
X131826000Y-66990918D01*
X131570698Y-66608832D01*
X131105151Y-66297763D01*
X130556000Y-66188530D01*
X130006849Y-66297763D01*
X129541302Y-66608832D01*
X129286000Y-66990918D01*
X129030698Y-66608832D01*
X128565151Y-66297763D01*
X128016000Y-66188530D01*
X127466849Y-66297763D01*
X127001302Y-66608832D01*
X126690233Y-67074379D01*
X126581000Y-67623530D01*
X126581000Y-68393470D01*
X126690233Y-68942621D01*
X126939049Y-69315000D01*
X125685000Y-69315000D01*
X125685000Y-63668516D01*
X140568090Y-63668516D01*
X140623771Y-63899111D01*
X141106578Y-64067122D01*
X141616928Y-64037583D01*
X141951229Y-63899111D01*
X142006910Y-63668516D01*
X141287500Y-62949105D01*
X140568090Y-63668516D01*
X125685000Y-63668516D01*
X125685000Y-50685000D01*
X136850060Y-50685000D01*
X136850060Y-55395500D01*
G36*
X162814000Y-67691000D02*
X162834000Y-67691000D01*
X162834000Y-67945000D01*
X162814000Y-67945000D01*
X162814000Y-67965000D01*
X162560000Y-67965000D01*
X162560000Y-67945000D01*
X162540000Y-67945000D01*
X162540000Y-67691000D01*
X162560000Y-67691000D01*
X162560000Y-67671000D01*
X162814000Y-67671000D01*
X162814000Y-67691000D01*
X162814000Y-67691000D01*
G37*
X162814000Y-67691000D02*
X162834000Y-67691000D01*
X162834000Y-67945000D01*
X162814000Y-67945000D01*
X162814000Y-67965000D01*
X162560000Y-67965000D01*
X162560000Y-67945000D01*
X162540000Y-67945000D01*
X162540000Y-67691000D01*
X162560000Y-67691000D01*
X162560000Y-67671000D01*
X162814000Y-67671000D01*
X162814000Y-67691000D01*
G36*
X152844500Y-52768500D02*
X152864500Y-52768500D01*
X152864500Y-53022500D01*
X152844500Y-53022500D01*
X152844500Y-55871750D01*
X153003250Y-56030500D01*
X154093809Y-56030500D01*
X154327198Y-55933827D01*
X154463872Y-55797153D01*
X154495910Y-55846941D01*
X154708110Y-55991931D01*
X154960000Y-56042940D01*
X155394139Y-56042940D01*
X155455903Y-56192420D01*
X155705764Y-56442718D01*
X156032391Y-56578346D01*
X156386057Y-56578654D01*
X156712920Y-56443597D01*
X156963218Y-56193736D01*
X157025834Y-56042940D01*
X157460000Y-56042940D01*
X157695317Y-55998662D01*
X157911441Y-55859590D01*
X157955271Y-55795442D01*
X157988410Y-55846941D01*
X158200610Y-55991931D01*
X158452500Y-56042940D01*
X158886639Y-56042940D01*
X158948403Y-56192420D01*
X159198264Y-56442718D01*
X159524891Y-56578346D01*
X159878557Y-56578654D01*
X160205420Y-56443597D01*
X160455718Y-56193736D01*
X160518334Y-56042940D01*
X160952500Y-56042940D01*
X161187817Y-55998662D01*
X161403941Y-55859590D01*
X161447771Y-55795442D01*
X161480910Y-55846941D01*
X161693110Y-55991931D01*
X161945000Y-56042940D01*
X162379139Y-56042940D01*
X162440903Y-56192420D01*
X162690764Y-56442718D01*
X163017391Y-56578346D01*
X163078110Y-56578399D01*
X163245800Y-56746089D01*
X163245800Y-61344712D01*
X162716359Y-61239400D01*
X162657641Y-61239400D01*
X162084152Y-61353474D01*
X162061997Y-61368278D01*
X162031490Y-61322621D01*
X161919895Y-61155606D01*
X161729394Y-60965106D01*
X161498665Y-60810937D01*
X161226500Y-60756800D01*
X155298088Y-60756800D01*
X150566930Y-56025642D01*
X150710317Y-55998662D01*
X150926441Y-55859590D01*
X150969924Y-55795950D01*
X151107802Y-55933827D01*
X151341191Y-56030500D01*
X152431750Y-56030500D01*
X152590500Y-55871750D01*
X152590500Y-53022500D01*
X152570500Y-53022500D01*
X152570500Y-52768500D01*
X152590500Y-52768500D01*
X152590500Y-52748500D01*
X152844500Y-52748500D01*
X152844500Y-52768500D01*
X152844500Y-52768500D01*
G37*
X152844500Y-52768500D02*
X152864500Y-52768500D01*
X152864500Y-53022500D01*
X152844500Y-53022500D01*
X152844500Y-55871750D01*
X153003250Y-56030500D01*
X154093809Y-56030500D01*
X154327198Y-55933827D01*
X154463872Y-55797153D01*
X154495910Y-55846941D01*
X154708110Y-55991931D01*
X154960000Y-56042940D01*
X155394139Y-56042940D01*
X155455903Y-56192420D01*
X155705764Y-56442718D01*
X156032391Y-56578346D01*
X156386057Y-56578654D01*
X156712920Y-56443597D01*
X156963218Y-56193736D01*
X157025834Y-56042940D01*
X157460000Y-56042940D01*
X157695317Y-55998662D01*
X157911441Y-55859590D01*
X157955271Y-55795442D01*
X157988410Y-55846941D01*
X158200610Y-55991931D01*
X158452500Y-56042940D01*
X158886639Y-56042940D01*
X158948403Y-56192420D01*
X159198264Y-56442718D01*
X159524891Y-56578346D01*
X159878557Y-56578654D01*
X160205420Y-56443597D01*
X160455718Y-56193736D01*
X160518334Y-56042940D01*
X160952500Y-56042940D01*
X161187817Y-55998662D01*
X161403941Y-55859590D01*
X161447771Y-55795442D01*
X161480910Y-55846941D01*
X161693110Y-55991931D01*
X161945000Y-56042940D01*
X162379139Y-56042940D01*
X162440903Y-56192420D01*
X162690764Y-56442718D01*
X163017391Y-56578346D01*
X163078110Y-56578399D01*
X163245800Y-56746089D01*
X163245800Y-61344712D01*
X162716359Y-61239400D01*
X162657641Y-61239400D01*
X162084152Y-61353474D01*
X162061997Y-61368278D01*
X162031490Y-61322621D01*
X161919895Y-61155606D01*
X161729394Y-60965106D01*
X161498665Y-60810937D01*
X161226500Y-60756800D01*
X155298088Y-60756800D01*
X150566930Y-56025642D01*
X150710317Y-55998662D01*
X150926441Y-55859590D01*
X150969924Y-55795950D01*
X151107802Y-55933827D01*
X151341191Y-56030500D01*
X152431750Y-56030500D01*
X152590500Y-55871750D01*
X152590500Y-53022500D01*
X152570500Y-53022500D01*
X152570500Y-52768500D01*
X152590500Y-52768500D01*
X152590500Y-52748500D01*
X152844500Y-52748500D01*
X152844500Y-52768500D01*
M02*
