M48
;DRILL file {KiCad 4.0.2-1.fc23-product} date Sat 17 Mar 2018 10:10:53 PM EDT
;FORMAT={2:4/ absolute / inch / suppress trailing zeros}
FMAT,2
INCH,LZ
T1C0.010
T2C0.028
T3C0.031
T4C0.035
T5C0.040
%
G90
G05
M72
T1
X056Y-021925
X057375Y-021925
X05875Y-021925
X060125Y-021925
X0615Y-021925
X062875Y-021925
X06425Y-021925
T2
X057875Y-026924
X061875Y-026924
T3
X0504Y-023775
X0504Y-026775
X0514Y-023775
X0514Y-026775
X0524Y-023775
X0524Y-026775
X0534Y-023775
X0534Y-026775
X055625Y-023925
X055625Y-024712
T4
X054925Y-026425
X056894Y-026425
T5
X06305Y-0247
X06305Y-0257
X06305Y-0267
X06405Y-0247
X06405Y-0257
X06405Y-0267
T0
M30
